<?xml version="1.0" encoding="UTF-8"?>
<svg version="1.1" xmlns="http://www.w3.org/2000/svg" width="500" height="500">
<path d="M0 0 C1.23617065 0.00297592 1.23617065 0.00297592 2.49731445 0.00601196 C17.14707704 0.08010963 30.59325337 2.04514596 44.5625 6.625 C45.30371094 6.85944824 46.04492188 7.09389648 46.80859375 7.33544922 C53.93837196 9.61488918 60.78139946 12.46828078 67.5625 15.625 C67.5625 16.285 67.5625 16.945 67.5625 17.625 C68.5525 17.955 69.5425 18.285 70.5625 18.625 C69.98064261 21.94776935 69.17205806 24.84916604 67.8125 27.93359375 C67.45559082 28.75311523 67.09868164 29.57263672 66.73095703 30.41699219 C66.1525708 31.72651855 66.1525708 31.72651855 65.5625 33.0625 C62.98020054 38.96459947 60.44049562 44.87224525 58.0703125 50.86328125 C57.67070312 51.86883057 57.27109375 52.87437988 56.859375 53.91040039 C56.08748023 55.86313334 55.32422554 57.81930718 54.5703125 59.77905273 C54.2196875 60.66149658 53.8690625 61.54394043 53.5078125 62.453125 C53.20375488 63.2359082 52.89969727 64.01869141 52.58642578 64.82519531 C51.5625 66.625 51.5625 66.625 48.5625 67.625 C46.6875 66.8046875 46.6875 66.8046875 44.5625 65.5 C30.91655809 57.58360421 16.76314124 52.20240339 0.875 52.125 C0.03783447 52.11879639 -0.79933105 52.11259277 -1.66186523 52.10620117 C-7.53680781 52.22808795 -12.00613492 53.27206605 -16.375 57.5 C-17.61918052 59.59239068 -17.61918052 59.59239068 -17.4375 62.0625 C-15.6320744 66.68890309 -12.42303166 69.13109614 -8.0546875 71.3203125 C-6.81312474 71.81187135 -5.56536174 72.28799823 -4.3125 72.75 C-3.65016357 73.00515381 -2.98782715 73.26030762 -2.30541992 73.52319336 C2.36284961 75.28387846 7.07153742 76.63327349 11.90625 77.86328125 C16.97796068 79.31766887 21.73567118 81.51646793 26.5625 83.625 C27.88330227 84.17123916 29.20496112 84.71541041 30.52734375 85.2578125 C38.58198432 88.60584861 45.61381954 92.2613546 52.5625 97.625 C53.5525 98.285 54.5425 98.945 55.5625 99.625 C55.5625 100.285 55.5625 100.945 55.5625 101.625 C56.2225 101.625 56.8825 101.625 57.5625 101.625 C57.5625 102.285 57.5625 102.945 57.5625 103.625 C58.2225 103.625 58.8825 103.625 59.5625 103.625 C67.91633166 113.76893845 73.09971018 124.32482301 73.5625 137.625 C73.60246094 138.54925781 73.64242187 139.47351563 73.68359375 140.42578125 C74.05785178 157.04724104 70.80419328 172.82589329 59.5625 185.625 C58.9025 185.625 58.2425 185.625 57.5625 185.625 C57.19898438 186.49705078 57.19898438 186.49705078 56.828125 187.38671875 C50.55695105 198.47740602 34.08218814 204.07048657 22.671875 207.80078125 C21.64578125 208.07277344 20.6196875 208.34476563 19.5625 208.625 C18.60210815 208.88990234 18.60210815 208.88990234 17.62231445 209.16015625 C8.95003299 211.24515254 0.11461957 211.01935929 -8.75 211 C-10.01731964 211.00018127 -10.01731964 211.00018127 -11.3102417 211.00036621 C-24.3688467 210.97373685 -36.81040857 210.22511779 -49.4375 206.625 C-51.16806641 206.13966797 -51.16806641 206.13966797 -52.93359375 205.64453125 C-55.82298594 204.74274643 -58.62136015 203.73251699 -61.4375 202.625 C-62.38109375 202.26792969 -63.3246875 201.91085937 -64.296875 201.54296875 C-72.6921267 198.22262449 -80.54208609 193.97179208 -88.4375 189.625 C-88.72393155 184.90935866 -87.98500055 182.01597369 -85.875 177.8125 C-83.37076339 172.6449341 -81.08589693 167.44996379 -78.9375 162.125 C-75.98637709 154.84983334 -72.80546004 147.71868874 -69.4375 140.625 C-64.67503329 140.12229518 -62.18013689 141.69446725 -58.1875 144.1875 C-40.66129093 154.67645712 -19.47514007 162.41837274 1.08984375 158.29296875 C3.68124922 157.59292083 6.09287986 156.67204825 8.5625 155.625 C9.47169603 151.17784552 9.9839546 147.75627287 8.375 143.4375 C-0.28680148 134.77569852 -13.72380178 131.98600617 -25.1640625 128.484375 C-45.07723141 122.19600587 -64.81050135 112.44556863 -75.4375 93.625 C-79.77771307 84.58881869 -81.83338726 75.5060416 -81.8125 65.5 C-81.81088867 64.68104248 -81.80927734 63.86208496 -81.80761719 63.01831055 C-81.59238911 52.15245793 -78.84972809 42.09639916 -73.4375 32.625 C-72.7775 32.625 -72.1175 32.625 -71.4375 32.625 C-71.251875 31.965 -71.06625 31.305 -70.875 30.625 C-68.82941226 26.35594732 -65.86565357 22.88336294 -62.4375 19.625 C-61.7775 19.625 -61.1175 19.625 -60.4375 19.625 C-60.4375 18.965 -60.4375 18.305 -60.4375 17.625 C-42.73655689 4.50138752 -21.63320098 -0.18712424 0 0 Z " fill="#E6161C" transform="translate(317.4375,148.375)"/>
<path d="M0 0 C1.27284851 0.00700928 1.27284851 0.00700928 2.57141113 0.01416016 C3.42674438 0.01754395 4.28207764 0.02092773 5.16333008 0.02441406 C14.79705582 0.09458136 24.42249321 0.36794674 34.05187988 0.64697266 C35.7284312 0.69468727 37.40498555 0.7422954 39.08154297 0.78979492 C43.14070164 0.90502504 47.19981679 1.0216869 51.25891113 1.13916016 C51.35265669 20.68112337 51.42303764 40.22304048 51.46615982 59.7651825 C51.48672092 68.84043935 51.51471696 77.9155559 51.56066895 86.99072266 C51.60073555 94.90739449 51.62639074 102.82396463 51.63526511 110.74073505 C51.64044657 114.9265179 51.6524875 119.11201 51.68183136 123.29769897 C51.70931518 127.25071175 51.71729091 131.20331859 51.71134186 135.15641785 C51.71242757 136.59457112 51.720183 138.03274033 51.73573303 139.47080994 C51.86982927 152.53092022 49.88930395 165.3364704 43.63391113 176.95166016 C43.04352051 178.07185547 42.45312988 179.19205078 41.84484863 180.34619141 C40.72346967 182.32103367 39.5186416 184.24956446 38.25891113 186.13916016 C37.59891113 186.13916016 36.93891113 186.13916016 36.25891113 186.13916016 C36.25891113 186.79916016 36.25891113 187.45916016 36.25891113 188.13916016 C35.59891113 188.13916016 34.93891113 188.13916016 34.25891113 188.13916016 C34.02430176 188.72697266 33.78969238 189.31478516 33.54797363 189.92041016 C28.22365475 199.08469236 13.89430646 203.59144586 4.31164551 206.27709961 C-2.01480214 207.7714229 -8.40344177 207.73395803 -14.87194824 207.66064453 C-17.10808499 207.63923678 -19.34098733 207.66054764 -21.57702637 207.68603516 C-34.49899651 207.71165991 -46.64141233 205.39200549 -58.49108887 200.07666016 C-59.59968262 199.59068359 -60.70827637 199.10470703 -61.85046387 198.60400391 C-64.40662186 197.30865357 -66.52969887 195.9479913 -68.74108887 194.13916016 C-68.11274497 190.59469687 -67.18608631 187.36646503 -65.92077637 183.99853516 C-65.55331299 183.01755859 -65.18584961 182.03658203 -64.80725098 181.02587891 C-64.41416748 179.99076172 -64.02108398 178.95564453 -63.61608887 177.88916016 C-63.21591553 176.82826172 -62.81574219 175.76736328 -62.40344238 174.67431641 C-59.01976046 165.75693969 -55.45328439 156.92429169 -51.74108887 148.13916016 C-47.68278911 148.65810941 -44.73044284 149.44638427 -41.24108887 151.57666016 C-35.64861136 154.9706456 -30.744646 156.42016869 -24.17858887 156.38916016 C-22.53696777 156.39689453 -22.53696777 156.39689453 -20.86218262 156.40478516 C-17.71707298 156.13711625 -15.54143123 155.57154767 -12.74108887 154.13916016 C-8.21587542 148.15941381 -8.48653589 141.30144652 -8.19616699 134.10546875 C-8.15427498 133.09722235 -8.11238297 132.08897594 -8.0692215 131.05017662 C-7.62811239 119.54103672 -7.54293385 108.03081045 -7.48072815 96.51442337 C-7.45930671 92.58049429 -7.4324692 88.64662098 -7.40405273 84.71273804 C-7.33471605 74.97340775 -7.27443037 65.23402416 -7.21502686 55.49462891 C-7.16426685 47.19648003 -7.10950221 38.89837761 -7.04920959 30.60029221 C-7.02262287 26.71967629 -7.00184134 22.83905598 -6.98120117 18.95840454 C-6.96461647 16.60670765 -6.94774629 14.25501275 -6.93054199 11.90332031 C-6.92635757 10.820961 -6.92217316 9.73860168 -6.91786194 8.6234436 C-6.90534645 7.15669189 -6.90534645 7.15669189 -6.89257812 5.66030884 C-6.88742439 4.80618219 -6.88227066 3.95205555 -6.87696075 3.07204628 C-6.58271879 -1.11378064 -3.48595542 0.00955711 0 0 Z " fill="#E6151B" transform="translate(174.7410888671875,151.86083984375)"/>
<path d="M0 0 C1.23617065 0.00297592 1.23617065 0.00297592 2.49731445 0.00601196 C17.14707704 0.08010963 30.59325337 2.04514596 44.5625 6.625 C45.30371094 6.85944824 46.04492188 7.09389648 46.80859375 7.33544922 C53.93837196 9.61488918 60.78139946 12.46828078 67.5625 15.625 C67.5625 16.285 67.5625 16.945 67.5625 17.625 C68.5525 17.955 69.5425 18.285 70.5625 18.625 C70.2325 20.275 69.9025 21.925 69.5625 23.625 C69.2325 22.635 68.9025 21.645 68.5625 20.625 C66.08981281 19.24981413 66.08981281 19.24981413 63.0625 18.125 C61.98484375 17.69832031 60.9071875 17.27164063 59.796875 16.83203125 C55.74701822 15.32067166 51.68343013 13.92996121 47.5625 12.625 C47.2325 13.615 46.9025 14.605 46.5625 15.625 C44.89638095 15.667721 43.22867115 15.66563832 41.5625 15.625 C41.0675 15.13 41.0675 15.13 40.5625 14.625 C40.2325 15.615 39.9025 16.605 39.5625 17.625 C38.840625 17.439375 38.11875 17.25375 37.375 17.0625 C34.60780635 16.46665206 34.60780635 16.46665206 32.0625 17.125 C29.16536146 17.70442771 27.44129719 17.25190139 24.5625 16.625 C21.47849306 16.11233391 18.3919373 15.61772815 15.3046875 15.125 C12.5625 14.625 12.5625 14.625 9.5625 13.625 C6.01761668 13.51414921 2.4797357 13.72179715 -1.0625 13.875 C-2.50302734 13.91560547 -2.50302734 13.91560547 -3.97265625 13.95703125 C-9.57661727 14.19274739 -14.19187063 15.03539625 -19.44091797 16.98779297 C-22.25431002 17.88568405 -24.76277668 17.77755319 -27.6875 17.5625 C-32.30363209 17.36510257 -32.30363209 17.36510257 -36.3125 19.5625 C-37.364375 20.5834375 -37.364375 20.5834375 -38.4375 21.625 C-40.43301782 21.98419321 -42.43298879 22.31996569 -44.4375 22.625 C-46.29551239 24.06191955 -46.29551239 24.06191955 -47.4375 25.625 C-48.4275 24.965 -49.4175 24.305 -50.4375 23.625 C-50.97375 24.140625 -51.51 24.65625 -52.0625 25.1875 C-54.4375 26.625 -54.4375 26.625 -57.375 26.125 C-60.38504232 25.38301939 -60.38504232 25.38301939 -62.9375 26.5 C-68.22947701 30.99818046 -71.55487424 37.37931085 -74.4375 43.625 C-75.0975 43.625 -75.7575 43.625 -76.4375 43.625 C-76.4375 44.615 -76.4375 45.605 -76.4375 46.625 C-77.0975 46.625 -77.7575 46.625 -78.4375 46.625 C-77.90265599 41.27655992 -75.97059233 37.26703897 -73.4375 32.625 C-72.7775 32.625 -72.1175 32.625 -71.4375 32.625 C-71.251875 31.965 -71.06625 31.305 -70.875 30.625 C-68.82941226 26.35594732 -65.86565357 22.88336294 -62.4375 19.625 C-61.7775 19.625 -61.1175 19.625 -60.4375 19.625 C-60.4375 18.965 -60.4375 18.305 -60.4375 17.625 C-42.73655689 4.50138752 -21.63320098 -0.18712424 0 0 Z " fill="#EB4241" transform="translate(317.4375,148.375)"/>
<path d="M0 0 C0.33 0.66 0.66 1.32 1 2 C-0.11678083 3.6721852 -1.24366352 5.33762803 -2.375 7 C-3.00148438 7.928125 -3.62796875 8.85625 -4.2734375 9.8125 C-5.12808594 10.8953125 -5.12808594 10.8953125 -6 12 C-6.66 12 -7.32 12 -8 12 C-8.36351562 12.87205078 -8.36351562 12.87205078 -8.734375 13.76171875 C-15.00554895 24.85240602 -31.48031186 30.44548657 -42.890625 34.17578125 C-43.91671875 34.44777344 -44.9428125 34.71976562 -46 35 C-46.64026123 35.17660156 -47.28052246 35.35320312 -47.94018555 35.53515625 C-56.61246701 37.62015254 -65.44788043 37.39435929 -74.3125 37.375 C-75.57981964 37.37518127 -75.57981964 37.37518127 -76.8727417 37.37536621 C-89.9313467 37.34873685 -102.37290857 36.60011779 -115 33 C-116.15371094 32.67644531 -117.30742187 32.35289062 -118.49609375 32.01953125 C-121.38568751 31.11768351 -124.18394817 30.10835859 -127 29 C-127.96679688 28.63132812 -128.93359375 28.26265625 -129.9296875 27.8828125 C-135.47081179 25.68075531 -140.87064749 23.1976772 -146.1875 20.5 C-147.27417969 19.9534375 -148.36085937 19.406875 -149.48046875 18.84375 C-152 17 -152 17 -152.86328125 14.28125 C-152.90839844 13.5284375 -152.95351562 12.775625 -153 12 C-152.01 12 -151.02 12 -150 12 C-149.731875 11.195625 -149.46375 10.39125 -149.1875 9.5625 C-148.795625 8.716875 -148.40375 7.87125 -148 7 C-147.01 6.67 -146.02 6.34 -145 6 C-144.71125 6.9075 -144.4225 7.815 -144.125 8.75 C-143.75375 9.8225 -143.3825 10.895 -143 12 C-142.79375 12.7425 -142.5875 13.485 -142.375 14.25 C-140.02226286 17.24439272 -136.63907384 17.29566313 -133 18 C-133 18.66 -133 19.32 -133 20 C-132.319375 19.938125 -131.63875 19.87625 -130.9375 19.8125 C-127.17977516 20.05235478 -124.4479736 21.51380448 -121 23 C-118.67843403 23.40729228 -116.3431213 23.74438677 -114 24 C-112.9275 24.20625 -111.855 24.4125 -110.75 24.625 C-107.91662389 25.21748999 -107.91662389 25.21748999 -105 24 C-102.99279077 24.28674418 -100.99369031 24.63079809 -99 25 C-96.00354362 25.36721279 -93.00250208 25.68640534 -90 26 C-89.505 27.485 -89.505 27.485 -89 29 C-80.06068024 29.96520894 -70.89414192 30.67813999 -62 29 C-60.28450913 27.59237158 -60.28450913 27.59237158 -59 26 C-54.94631708 24.51089199 -51.42407474 23.93488066 -47.125 23.6875 C-38.98644528 22.97229368 -33.0618613 18.22011462 -26.78125 13.34765625 C-24.62099894 11.71325577 -22.33808046 10.36388027 -20 9 C-19.29875 8.4225 -18.5975 7.845 -17.875 7.25 C-17.25625 6.8375 -16.6375 6.425 -16 6 C-15.01 6.33 -14.02 6.66 -13 7 C-13.33 7.99 -13.66 8.98 -14 10 C-13.4225 9.54625 -12.845 9.0925 -12.25 8.625 C-10 7 -10 7 -7.9375 6.0625 C-5.5757529 4.76734836 -4.58932726 3.14213674 -3 1 C-2.01 0.67 -1.02 0.34 0 0 Z " fill="#8C1315" transform="translate(383,322)"/>
<path d="M0 0 C1.92201132 4.94231482 -0.58520913 8.94510498 -2.4609375 13.58203125 C-4.56992386 18.26569385 -6.85577514 22.91527386 -10 27 C-10.66 27 -11.32 27 -12 27 C-12 27.66 -12 28.32 -12 29 C-12.66 29 -13.32 29 -14 29 C-14.23460937 29.5878125 -14.46921875 30.175625 -14.7109375 30.78125 C-20.03525639 39.94553221 -34.36460467 44.45228571 -43.94726562 47.13793945 C-50.27371327 48.63226274 -56.6623529 48.59479787 -63.13085938 48.52148438 C-65.36699613 48.50007663 -67.59989847 48.52138749 -69.8359375 48.546875 C-82.75790764 48.57249976 -94.90032346 46.25284534 -106.75 40.9375 C-107.85859375 40.45152344 -108.9671875 39.96554687 -110.109375 39.46484375 C-112.665533 38.16949341 -114.78861 36.80883114 -117 35 C-116.39009109 31.44219804 -115.4216319 28.3171411 -114 25 C-113.34 26.32 -112.68 27.64 -112 29 C-111.67 28.01 -111.34 27.02 -111 26 C-109.35 25.67 -107.7 25.34 -106 25 C-105.67 25.66 -105.34 26.32 -105 27 C-104.01 27.33 -103.02 27.66 -102 28 C-101.690625 28.639375 -101.38125 29.27875 -101.0625 29.9375 C-99.7657662 32.45468915 -98.5778263 32.96886948 -96 34 C-95.67 33.01 -95.34 32.02 -95 31 C-94.34 31.33 -93.68 31.66 -93 32 C-93 32.66 -93 33.32 -93 34 C-92.35933594 34.09796875 -91.71867187 34.1959375 -91.05859375 34.296875 C-86.66819136 35.05587154 -83.5303564 35.65322851 -79.75 38.125 C-74.51069078 41.44779231 -67.92955888 40.5895284 -62 40 C-59.12575874 39.24624953 -56.73312199 38.22014375 -54 37 C-52.0103005 36.60986284 -50.00980131 36.26797351 -48 36 C-43.07601136 35.15931901 -39.17426002 33.78284001 -35 31 C-34.01 31 -33.02 31 -32 31 C-31.67 31.33 -31.34 31.66 -31 32 C-30.05125 31.34 -29.1025 30.68 -28.125 30 C-25 28 -25 28 -23 28 C-23 27.34 -23 26.68 -23 26 C-21.01739574 24.31267723 -19.0167658 22.64633943 -17 21 C-16.67 20.34 -16.34 19.68 -16 19 C-15.34 19 -14.68 19 -14 19 C-14 18.34 -14 17.68 -14 17 C-13.4225 16.979375 -12.845 16.95875 -12.25 16.9375 C-8.61609879 15.4233745 -7.75149584 12.44043825 -6 9 C-5.34 9 -4.68 9 -4 9 C-3.67 7.02 -3.34 5.04 -3 3 C-2.01 2.67 -1.02 2.34 0 2 C0 1.34 0 0.68 0 0 Z " fill="#AE1113" transform="translate(223,311)"/>
<path d="M0 0 C1.27846802 0.00676758 1.27846802 0.00676758 2.58276367 0.01367188 C3.91633911 0.01657227 3.91633911 0.01657227 5.27685547 0.01953125 C20.61115168 0.11052847 35.94395205 0.6651945 51.27026367 1.13867188 C51.31058625 9.79794607 51.31058625 9.79794607 50.27026367 12.13867188 C40.99439937 18.0105122 25.60610327 14.95609771 15.20385742 14.3671875 C9.11227566 14.07821934 3.97714194 13.84440813 -1.72973633 16.13867188 C-3.60798524 18.01692079 -3.1207603 21.17802463 -3.29223633 23.70117188 C-3.37602539 24.89871094 -3.45981445 26.09625 -3.54614258 27.33007812 C-3.63702148 28.72033203 -3.63702148 28.72033203 -3.72973633 30.13867188 C-4.05973633 30.13867188 -4.38973633 30.13867188 -4.72973633 30.13867188 C-4.73782318 31.36768219 -4.74591003 32.5966925 -4.75424194 33.86294556 C-4.83229446 45.54079712 -4.92017337 57.21854056 -5.01726341 68.89624977 C-5.06685341 74.89744458 -5.11318123 80.89862487 -5.15161133 86.89990234 C-5.18894217 92.70962111 -5.23541948 98.51920597 -5.28779984 104.32880783 C-5.30609366 106.52672308 -5.32128985 108.72466674 -5.33308029 110.9226265 C-5.39497075 122.07878147 -5.62203926 133.22212685 -6.38061523 144.35498047 C-6.42398703 145.26826426 -6.46735882 146.18154804 -6.51204491 147.1225071 C-6.86941029 151.53002225 -7.23507495 154.24551542 -10.69100952 157.20083618 C-17.10173452 161.28903908 -24.30001303 160.85068702 -31.72973633 160.13867188 C-34.98568384 159.12872519 -37.94121318 157.90226024 -41.01098633 156.42773438 C-43.86132019 155.07628297 -46.72335473 154.08479785 -49.72973633 153.13867188 C-50.12805664 154.27046875 -50.52637695 155.40226563 -50.93676758 156.56835938 C-51.47139884 158.05031971 -52.00658399 159.5320803 -52.54223633 161.01367188 C-52.80327148 161.76003906 -53.06430664 162.50640625 -53.33325195 163.27539062 C-53.59428711 163.99082031 -53.85532227 164.70625 -54.12426758 165.44335938 C-54.35992432 166.10319824 -54.59558105 166.76303711 -54.83837891 167.44287109 C-55.72973633 169.13867188 -55.72973633 169.13867188 -58.72973633 171.13867188 C-59.2734381 173.26700097 -59.2734381 173.26700097 -59.35473633 175.63867188 C-59.65078896 179.98077714 -59.65078896 179.98077714 -60.72973633 182.13867188 C-61.38973633 182.13867188 -62.04973633 182.13867188 -62.72973633 182.13867188 C-62.72973633 182.79867187 -62.72973633 183.45867187 -62.72973633 184.13867188 C-63.38973633 184.13867188 -64.04973633 184.13867188 -64.72973633 184.13867188 C-64.1257438 179.47016489 -62.83927311 175.54518992 -61.04223633 171.20117188 C-60.5042899 169.8887481 -59.96653557 168.57624558 -59.42895508 167.26367188 C-59.15100098 166.59078125 -58.87304688 165.91789063 -58.58666992 165.22460938 C-57.14990585 161.72725547 -55.75435399 158.21351557 -54.35473633 154.70117188 C-53.84711182 153.43156544 -53.339317 152.16202709 -52.83129883 150.89257812 C-52.4677832 149.98378906 -52.10426758 149.075 -51.72973633 148.13867188 C-47.67143657 148.65762113 -44.7190903 149.44589599 -41.22973633 151.57617188 C-35.63725882 154.97015732 -30.73329346 156.41968041 -24.16723633 156.38867188 C-22.52561523 156.39640625 -22.52561523 156.39640625 -20.85083008 156.40429688 C-17.70572044 156.13662797 -15.53007869 155.57105938 -12.72973633 154.13867188 C-8.20452288 148.15892553 -8.47518335 141.30095824 -8.18481445 134.10498047 C-8.14292244 133.09673407 -8.10103043 132.08848766 -8.05786896 131.04968834 C-7.61675985 119.54054844 -7.53158131 108.03032217 -7.46937561 96.51393509 C-7.44795417 92.58000601 -7.42111666 88.6461327 -7.3927002 84.71224976 C-7.32336352 74.97291947 -7.26307783 65.23353588 -7.20367432 55.49414062 C-7.15291431 47.19599175 -7.09814967 38.89788933 -7.03785706 30.59980392 C-7.01127033 26.71918801 -6.9904888 22.83856769 -6.96984863 18.95791626 C-6.95326393 16.60621937 -6.93639375 14.25452447 -6.91918945 11.90283203 C-6.91500504 10.82047272 -6.91082062 9.7381134 -6.9065094 8.62295532 C-6.89399391 7.15620361 -6.89399391 7.15620361 -6.88122559 5.65982056 C-6.87607185 4.80569391 -6.87091812 3.95156727 -6.86560822 3.071558 C-6.57160602 -1.11085813 -3.48485935 0.00886263 0 0 Z " fill="#E14142" transform="translate(174.729736328125,151.861328125)"/>
<path d="M0 0 C0.99 0.33 1.98 0.66 3 1 C2.67 1.99 2.34 2.98 2 4 C2.99 4 3.98 4 5 4 C4.071875 4.37125 4.071875 4.37125 3.125 4.75 C0.88950792 5.80004165 0.88950792 5.80004165 0.125 7.8125 C-1.56536631 11.09932339 -4.06104817 12.82517565 -7 15 C-8.3242287 15.36784131 -9.65613912 15.71202981 -11 16 C-11.99 17.485 -11.99 17.485 -13 19 C-15.78515625 19.87890625 -15.78515625 19.87890625 -19.0625 20.5625 C-21.0551902 20.98188902 -23.03973399 21.44858496 -25 22 C-25.33 22.66 -25.66 23.32 -26 24 C-36.19234035 27.94254366 -46.21416289 28.5850421 -57.01806641 28.41162109 C-59.39398627 28.374705 -61.7683517 28.37060633 -64.14453125 28.37109375 C-71.64749202 28.3352899 -78.73664122 28.08717206 -86 26 C-86 25.34 -86 24.68 -86 24 C-86.64324219 23.96261719 -87.28648437 23.92523438 -87.94921875 23.88671875 C-107.39539691 22.47194687 -107.39539691 22.47194687 -115 17 C-115 16.34 -115 15.68 -115 15 C-116.36125 14.8453125 -116.36125 14.8453125 -117.75 14.6875 C-121.01961575 13.99585051 -122.53717737 13.17865079 -125 11 C-119.25 10.875 -119.25 10.875 -117 12 C-117 12.66 -117 13.32 -117 14 C-116.319375 13.938125 -115.63875 13.87625 -114.9375 13.8125 C-111.17977516 14.05235478 -108.4479736 15.51380448 -105 17 C-102.67843403 17.40729228 -100.3431213 17.74438677 -98 18 C-96.39125 18.309375 -96.39125 18.309375 -94.75 18.625 C-91.91662389 19.21748999 -91.91662389 19.21748999 -89 18 C-86.99279077 18.28674418 -84.99369031 18.63079809 -83 19 C-80.00354362 19.36721279 -77.00250208 19.68640534 -74 20 C-73.505 21.485 -73.505 21.485 -73 23 C-64.06068024 23.96520894 -54.89414192 24.67813999 -46 23 C-44.28450913 21.59237158 -44.28450913 21.59237158 -43 20 C-38.94631708 18.51089199 -35.42407474 17.93488066 -31.125 17.6875 C-22.98644528 16.97229368 -17.0618613 12.22011462 -10.78125 7.34765625 C-8.62099894 5.71325577 -6.33808046 4.36388027 -4 3 C-2.948125 2.13375 -2.948125 2.13375 -1.875 1.25 C-1.25625 0.8375 -0.6375 0.425 0 0 Z " fill="#A11012" transform="translate(367,328)"/>
<path d="M0 0 C1.23617065 0.00297592 1.23617065 0.00297592 2.49731445 0.00601196 C17.14707704 0.08010963 30.59325337 2.04514596 44.5625 6.625 C45.30371094 6.85944824 46.04492188 7.09389648 46.80859375 7.33544922 C53.93837196 9.61488918 60.78139946 12.46828078 67.5625 15.625 C67.5625 16.285 67.5625 16.945 67.5625 17.625 C68.5525 17.955 69.5425 18.285 70.5625 18.625 C70.2325 20.275 69.9025 21.925 69.5625 23.625 C69.2325 22.635 68.9025 21.645 68.5625 20.625 C66.32772922 19.35034392 66.32772922 19.35034392 63.5 18.3125 C62.40816406 17.88453125 61.31632813 17.4565625 60.19140625 17.015625 C58.39509766 16.32726562 58.39509766 16.32726562 56.5625 15.625 C55.32095551 15.12141351 54.08008071 14.61617315 52.83984375 14.109375 C23.51906054 2.35583316 -12.21017444 -0.57273332 -41.921875 11.3515625 C-56.80953771 17.88857483 -67.6301274 28.8756927 -74.4375 43.625 C-75.0975 43.625 -75.7575 43.625 -76.4375 43.625 C-76.4375 44.615 -76.4375 45.605 -76.4375 46.625 C-77.0975 46.625 -77.7575 46.625 -78.4375 46.625 C-77.90265599 41.27655992 -75.97059233 37.26703897 -73.4375 32.625 C-72.7775 32.625 -72.1175 32.625 -71.4375 32.625 C-71.251875 31.965 -71.06625 31.305 -70.875 30.625 C-68.82941226 26.35594732 -65.86565357 22.88336294 -62.4375 19.625 C-61.7775 19.625 -61.1175 19.625 -60.4375 19.625 C-60.4375 18.965 -60.4375 18.305 -60.4375 17.625 C-42.73655689 4.50138752 -21.63320098 -0.18712424 0 0 Z " fill="#F3C8C6" transform="translate(317.4375,148.375)"/>
<path d="M0 0 C19.01230059 -0.20083416 37.99940064 0.41301246 57 1 C57 3.31 57 5.62 57 8 C52.79210848 10.02460915 48.91357502 10.35227535 44.3203125 10.44921875 C43.58932343 10.47095657 42.85833435 10.4926944 42.10519409 10.51509094 C40.56390144 10.55885396 39.02247429 10.59808808 37.48095703 10.63305664 C35.13917809 10.68717236 32.79830236 10.75748248 30.45703125 10.83007812 C28.95315083 10.87075793 27.44924474 10.91050192 25.9453125 10.94921875 C25.25341827 10.96997971 24.56152405 10.99074066 23.84866333 11.01213074 C17.16125199 11.14950579 11.49929482 10.6092123 5.5625 7.4375 C4.69753906 6.98246094 3.83257812 6.52742187 2.94140625 6.05859375 C2.30074219 5.70925781 1.66007813 5.35992187 1 5 C1 4.34 1 3.68 1 3 C0.34 3 -0.32 3 -1 3 C-0.67 2.01 -0.34 1.02 0 0 Z " fill="#E75E5C" transform="translate(169,152)"/>
<path d="M0 0 C4.76246671 -0.50270482 7.25736311 1.06946725 11.25 3.5625 C28.77620907 14.05145712 49.96235993 21.79337274 70.52734375 17.66796875 C73.15189425 16.95896696 75.5539262 16.19310243 78 15 C78.89386164 12.45224694 78.89386164 12.45224694 79 10 C79.33 10 79.66 10 80 10 C80.375 13.25 80.375 13.25 80 17 C73.47326125 22.88998375 66.04260691 23.41471428 57.63671875 23.2421875 C39.71676323 22.048807 22.9361376 15.91617839 7.6875 6.6015625 C5.04191366 4.89508065 5.04191366 4.89508065 2 4 C1.59201172 5.29744141 1.59201172 5.29744141 1.17578125 6.62109375 C0.03483831 9.89988326 -1.31326939 12.93349891 -2.8125 16.0625 C-5.41436364 21.61440855 -7.67766883 27.22684934 -9.83203125 32.96484375 C-11.40306673 37.04743427 -13.16404416 41.03064296 -15 45 C-15.99 45 -16.98 45 -18 45 C-17.67 46.32 -17.34 47.64 -17 49 C-17.66 49 -18.32 49 -19 49 C-19.28643155 44.28435866 -18.54750055 41.39097369 -16.4375 37.1875 C-13.93326339 32.0199341 -11.64839693 26.82496379 -9.5 21.5 C-6.54887709 14.22483334 -3.36796004 7.09368874 0 0 Z " fill="#F39492" transform="translate(248,289)"/>
<path d="M0 0 C-0.33 1.32 -0.66 2.64 -1 4 C-1.66 4 -2.32 4 -3 4 C-3.23460937 4.5878125 -3.46921875 5.175625 -3.7109375 5.78125 C-9.03525639 14.94553221 -23.36460467 19.45228571 -32.94726562 22.13793945 C-39.27371327 23.63226274 -45.6623529 23.59479787 -52.13085938 23.52148438 C-54.36699613 23.50007663 -56.59989847 23.52138749 -58.8359375 23.546875 C-71.65392758 23.57220352 -83.2449823 21.2764536 -95 16 C-95 15.01 -95 14.02 -95 13 C-84.57530863 14.27313041 -74.30215986 15.96935088 -64 18 C-64 18.33 -64 18.66 -64 19 C-60.10430865 19.08732726 -56.20887018 19.14050185 -52.3125 19.1875 C-51.20970703 19.21263672 -50.10691406 19.23777344 -48.97070312 19.26367188 C-47.3706543 19.27817383 -47.3706543 19.27817383 -45.73828125 19.29296875 C-44.75899658 19.3086792 -43.77971191 19.32438965 -42.77075195 19.34057617 C-39.52106547 18.94113017 -37.6999918 17.80142765 -35 16 C-32.48712221 15.16366471 -29.96541341 14.50722566 -27.40234375 13.84375 C-24.95376365 13.1247833 -24.95376365 13.1247833 -23.07421875 11.515625 C-20.43989547 9.59073341 -18.03697077 9.01135905 -14.875 8.25 C-13.82054687 7.98703125 -12.76609375 7.7240625 -11.6796875 7.453125 C-9 7 -9 7 -7 8 C-6.9175 7.4225 -6.835 6.845 -6.75 6.25 C-5.66186883 2.98560649 -3.65852651 0 0 0 Z " fill="#851313" transform="translate(212,336)"/>
<path d="M0 0 C0.46728516 0.32105713 0.93457031 0.64211426 1.41601562 0.97290039 C6.57468713 4.37425703 11.64370534 6.52888345 17.5 8.4375 C19.27648586 9.03905441 21.05252275 9.64193619 22.828125 10.24609375 C24.14006836 10.68864502 24.14006836 10.68864502 25.47851562 11.14013672 C41.02488961 16.44167905 56.8968336 21.88574325 70 32 C71.485 32.99 71.485 32.99 73 34 C73 34.66 73 35.32 73 36 C73.66 36 74.32 36 75 36 C75 36.66 75 37.32 75 38 C75.66 38 76.32 38 77 38 C78.57647535 39.98929053 80.01638374 41.96641091 81.4375 44.0625 C81.83259766 44.62388672 82.22769531 45.18527344 82.63476562 45.76367188 C89.32078326 55.49789056 89.32078326 55.49789056 88.6875 60.4375 C88.460625 60.953125 88.23375 61.46875 88 62 C87.24814599 60.81367298 86.49864208 59.62585655 85.75 58.4375 C85.05390625 57.33341797 85.05390625 57.33341797 84.34375 56.20703125 C83.23743954 54.38998064 82.22925331 52.51355996 81.25 50.625 C70.11261863 30.99985621 48.09002691 23.58225955 28.02734375 16.5390625 C27.40715363 16.32076782 26.7869635 16.10247314 26.14797974 15.87756348 C23.01008543 14.77382872 19.86957834 13.68046742 16.72265625 12.60253906 C5.28032661 8.60845877 5.28032661 8.60845877 1 5 C0.125 2.25 0.125 2.25 0 0 Z " fill="#F39D9A" transform="translate(300,214)"/>
<path d="M0 0 C0 0.33 0 0.66 0 1 C-1.33402882 0.88265487 -2.6672014 0.75557824 -4 0.625 C-5.11375 0.52058594 -5.11375 0.52058594 -6.25 0.4140625 C-9 0 -9 0 -12.68798828 -0.99560547 C-16.7226381 -2.01415143 -20.5740882 -2.34290848 -24.7421875 -2.484375 C-25.46014999 -2.50934555 -26.17811249 -2.5343161 -26.91783142 -2.56004333 C-29.23671721 -2.63516303 -31.55556949 -2.69437193 -33.875 -2.75 C-34.66780365 -2.77123932 -35.4606073 -2.79247864 -36.2774353 -2.81436157 C-63.54669706 -3.98474832 -63.54669706 -3.98474832 -89.5625 2.625 C-93.02534454 4.01013782 -95.31791451 4.26942089 -99 4 C-78.63127099 -19.82105596 -25.29725863 -8.10152713 0 0 Z " fill="#F05653" transform="translate(367,160)"/>
<path d="M0 0 C0.33 0 0.66 0 1 0 C1.02936502 3.81248345 1.04692035 7.62493726 1.0625 11.4375 C1.07087891 12.50677734 1.07925781 13.57605469 1.08789062 14.67773438 C1.13940576 31.52318226 1.13940576 31.52318226 -1.24902344 34.61889648 C-6.93972408 39.64580054 -12.98211489 39.38965785 -20.25 39.359375 C-25.10609395 38.89399933 -28.91272295 37.38742802 -33.28125 35.2890625 C-36.13158386 33.9376111 -38.9936184 32.94612597 -42 32 C-42.39832031 33.13179688 -42.79664062 34.26359375 -43.20703125 35.4296875 C-43.74166251 36.91164783 -44.27684766 38.39340843 -44.8125 39.875 C-45.07353516 40.62136719 -45.33457031 41.36773437 -45.60351562 42.13671875 C-45.86455078 42.85214844 -46.12558594 43.56757813 -46.39453125 44.3046875 C-46.63018799 44.96452637 -46.86584473 45.62436523 -47.10864258 46.30419922 C-48 48 -48 48 -51 50 C-51.54370178 52.1283291 -51.54370178 52.1283291 -51.625 54.5 C-51.92105263 58.84210526 -51.92105263 58.84210526 -53 61 C-53.66 61 -54.32 61 -55 61 C-55 61.66 -55 62.32 -55 63 C-55.66 63 -56.32 63 -57 63 C-56.39600747 58.33149302 -55.10953678 54.40651804 -53.3125 50.0625 C-52.77455357 48.75007623 -52.23679925 47.4375737 -51.69921875 46.125 C-51.42126465 45.45210938 -51.14331055 44.77921875 -50.85693359 44.0859375 C-49.42016952 40.5885836 -48.02461767 37.0748437 -46.625 33.5625 C-46.11737549 32.29289357 -45.60958067 31.02335521 -45.1015625 29.75390625 C-44.55628906 28.39072266 -44.55628906 28.39072266 -44 27 C-39.94170025 27.51894925 -36.98935397 28.30722412 -33.5 30.4375 C-27.90752249 33.83148545 -23.00355713 35.28100853 -16.4375 35.25 C-14.79587891 35.25773437 -14.79587891 35.25773437 -13.12109375 35.265625 C-9.97598411 34.99795609 -7.80034236 34.43238751 -5 33 C-1.37082414 28.20430332 -0.91289884 23.34412757 -0.68359375 17.48046875 C-0.62075195 15.9480957 -0.62075195 15.9480957 -0.55664062 14.38476562 C-0.51732422 13.32966797 -0.47800781 12.27457031 -0.4375 11.1875 C-0.37272461 9.57584961 -0.37272461 9.57584961 -0.30664062 7.93164062 C-0.20089017 5.28787918 -0.09879767 2.6440289 0 0 Z " fill="#F59D9A" transform="translate(167,273)"/>
<path d="M0 0 C0.28875 0.886875 0.5775 1.77375 0.875 2.6875 C1.24625 3.780625 1.6175 4.87375 2 6 C2.37705078 7.27423828 2.37705078 7.27423828 2.76171875 8.57421875 C4.36337636 11.71185085 5.64106045 12.05038975 8.9375 13.125 C12.48754575 14.3066058 14.43461031 15.31380248 17 18 C25.30695651 21.43736131 34.17347591 22.57113674 43 24 C43 24.66 43 25.32 43 26 C42.01 26.495 42.01 26.495 41 27 C42.65 27.33 44.3 27.66 46 28 C46 28.33 46 28.66 46 29 C30.2161375 29.48011749 5.22544766 21.3160502 -7 11 C-7.76953125 8.32421875 -7.76953125 8.32421875 -8 6 C-7.01 6 -6.02 6 -5 6 C-4.71125 5.195625 -4.4225 4.39125 -4.125 3.5625 C-2.56097561 0 -2.56097561 0 0 0 Z " fill="#881416" transform="translate(238,328)"/>
<path d="M0 0 C1.41782145 0.06059066 2.83444466 0.14954123 4.25 0.25 C5.03890625 0.29640625 5.8278125 0.3428125 6.640625 0.390625 C9 1 9 1 10.7890625 2.890625 C13.81849021 5.78089172 17.17595866 6.48698317 21.125 7.5 C22.66119113 7.92071852 24.19636074 8.34518538 25.73046875 8.7734375 C26.4682959 8.97936523 27.20612305 9.18529297 27.96630859 9.39746094 C31.33459015 10.39541038 34.53019749 11.73855634 37.7578125 13.11328125 C40.08436891 14.0333654 42.39440434 14.67514252 44.8125 15.3125 C52.25262268 17.46186877 61.93861861 21.04141169 66 28 C67.64246703 32.684383 68.55566015 37.17745353 67 42 C66.67 42 66.34 42 66 42 C65.97421875 41.41992188 65.9484375 40.83984375 65.921875 40.2421875 C65.5251719 34.77850394 64.91488872 31.09697657 61 27 C51.61759187 21.05983901 40.80689386 18.08345179 30.2734375 14.859375 C23.3006251 12.65743424 16.79328054 10.1269696 10.25 6.875 C9.5701001 6.53815186 8.8902002 6.20130371 8.18969727 5.85424805 C5.03926795 4.23805902 2.2858473 2.74642847 0 0 Z " fill="#B31E21" transform="translate(262,262)"/>
<path d="M0 0 C19.01230059 -0.20083416 37.99940064 0.41301246 57 1 C57 1.66 57 2.32 57 3 C54.46115401 4.26942299 52.68949709 4.12701165 49.84765625 4.12939453 C48.23588501 4.13412277 48.23588501 4.13412277 46.59155273 4.13894653 C45.42696533 4.1369223 44.26237793 4.13489807 43.0625 4.1328125 C41.27598022 4.13424759 41.27598022 4.13424759 39.45336914 4.13571167 C36.93147733 4.13639315 34.40958377 4.1345411 31.88769531 4.13037109 C28.01623616 4.12502243 24.14489302 4.13031721 20.2734375 4.13671875 C17.82812474 4.13605796 15.38281206 4.13477679 12.9375 4.1328125 C11.7729126 4.13483673 10.6083252 4.13686096 9.40844727 4.13894653 C8.33393311 4.13579437 7.25941895 4.13264221 6.15234375 4.12939453 C5.20351318 4.12859894 4.25468262 4.12780334 3.27709961 4.12698364 C1 4 1 4 -1 3 C-0.67 2.01 -0.34 1.02 0 0 Z " fill="#F4C5C3" transform="translate(169,152)"/>
<path d="M0 0 C0.99 0.33 1.98 0.66 3 1 C2.67 1.99 2.34 2.98 2 4 C2.99 4 3.98 4 5 4 C4.071875 4.37125 4.071875 4.37125 3.125 4.75 C0.85722042 5.80059478 0.85722042 5.80059478 0.171875 7.9453125 C-1.40548194 10.71094499 -2.91059503 11.07822198 -5.875 12.125 C-9.03781313 13.26738922 -12.00134071 14.48407261 -15 16 C-20.02639727 18.34646049 -24.74070839 19.80497141 -30.1875 20.8125 C-31.23454102 21.03196289 -31.23454102 21.03196289 -32.30273438 21.25585938 C-35.37621287 21.8378025 -37.51883691 22.17901986 -40.48828125 21.07421875 C-40.98714844 20.71972656 -41.48601562 20.36523438 -42 20 C-38.32191249 18.54812335 -35.09943875 17.89499753 -31.1875 17.6875 C-23.01145858 16.97653988 -17.09164245 12.24321865 -10.78125 7.34765625 C-8.62099894 5.71325577 -6.33808046 4.36388027 -4 3 C-2.948125 2.13375 -2.948125 2.13375 -1.875 1.25 C-1.25625 0.8375 -0.6375 0.425 0 0 Z " fill="#B81114" transform="translate(367,328)"/>
<path d="M0 0 C1.35350594 0.62469505 2.6976277 1.27470792 4 2 C4 2.66 4 3.32 4 4 C6.97 4.99 9.94 5.98 13 7 C13 7.66 13 8.32 13 9 C12.44054687 8.82984375 11.88109375 8.6596875 11.3046875 8.484375 C9.56515023 7.95859846 7.82258461 7.44280054 6.078125 6.93359375 C4.01102523 6.30664344 1.95809789 5.63110319 -0.078125 4.91015625 C-7.35314041 2.48802434 -13.85720396 1.60919591 -21.5 1.5625 C-22.77302979 1.5476355 -22.77302979 1.5476355 -24.07177734 1.5324707 C-30.56851128 1.62211196 -34.5790111 3.3860074 -40 7 C-39.09924838 3.31510701 -38.62903935 1.45605353 -35.5 -0.8125 C-34.675 -1.204375 -33.85 -1.59625 -33 -2 C-24.33190762 -6.33404619 -8.72647755 -2.60242422 0 0 Z " fill="#C31B1E" transform="translate(340,199)"/>
<path d="M0 0 C-3.00759837 2.00506558 -5.60358391 2.99140635 -9 4.1875 C-25.69360677 10.54961902 -36.20303087 21.15220692 -44 37 C-44.66 37 -45.32 37 -46 37 C-46 37.99 -46 38.98 -46 40 C-46.66 40 -47.32 40 -48 40 C-47.46515599 34.65155992 -45.53309233 30.64203897 -43 26 C-42.34 26 -41.68 26 -41 26 C-40.814375 25.34 -40.62875 24.68 -40.4375 24 C-38.39191226 19.73094732 -35.42815357 16.25836294 -32 13 C-31.34 13 -30.68 13 -30 13 C-30 12.34 -30 11.68 -30 11 C-21.25036641 4.4482076 -11.25896215 -0.91288882 0 0 Z " fill="#F2B6B4" transform="translate(287,155)"/>
<path d="M0 0 C0.46728516 0.32105713 0.93457031 0.64211426 1.41601562 0.97290039 C6.57459872 4.37419874 11.64362584 6.52925611 17.5 8.4375 C19.27131083 9.0363499 21.04213873 9.63662999 22.8125 10.23828125 C24.12347656 10.68034912 24.12347656 10.68034912 25.4609375 11.13134766 C35.79903501 14.66816986 45.95705761 18.70131632 56 23 C52.71023192 24.09658936 51.28696233 23.79953138 48 23 C48 22.34 48 21.68 48 21 C46.84359009 20.86827393 46.84359009 20.86827393 45.66381836 20.73388672 C36.83592021 19.57216466 28.89957889 17.19820587 20.5625 14.125 C19.33595703 13.69058594 18.10941406 13.25617188 16.84570312 12.80859375 C11.06402134 10.71473836 5.94720563 8.7424833 1 5 C0.125 2.25 0.125 2.25 0 0 Z " fill="#F3B0AD" transform="translate(300,214)"/>
<path d="M0 0 C0.33 0 0.66 0 1 0 C1.04673551 17.88933068 1.08199645 35.77864551 1.10362434 53.66802406 C1.11393378 61.97450426 1.12798777 70.28094651 1.15087891 78.58740234 C1.17082295 85.8279089 1.18371886 93.06838796 1.18817699 100.30892122 C1.19078265 104.1421762 1.19690018 107.97535254 1.21146011 111.80858231 C1.22506005 115.41840233 1.22921777 119.0281115 1.22621536 122.63795471 C1.22702576 124.59059057 1.23777478 126.54321442 1.24884033 128.49581909 C1.246091 129.66522034 1.24334167 130.83462158 1.24050903 132.03945923 C1.24235262 133.05158792 1.24419621 134.06371662 1.24609566 135.10651588 C0.9728857 138.31879803 0.12833003 140.99010682 -1 144 C-1.33 144 -1.66 144 -2 144 C-1.89722496 142.34040253 -1.89722496 142.34040253 -1.79237366 140.64727783 C-0.90907379 125.40849911 -0.78082537 110.18276382 -0.68359375 94.921875 C-0.66344535 92.17034252 -0.64201578 89.4188204 -0.62062073 86.66729736 C-0.57122532 80.22227882 -0.52609541 73.77723816 -0.48259836 67.3321774 C-0.43276374 59.9799536 -0.37802108 52.62776871 -0.32291877 45.27558279 C-0.20991755 30.18375831 -0.10290883 15.09189693 0 0 Z " fill="#D22022" transform="translate(169,160)"/>
<path d="M0 0 C0.99 0 1.98 0 3 0 C1.58943308 4.55133662 -0.24028471 8.78340067 -2.3125 13.0625 C-5.1204275 18.9587826 -7.58200884 24.91360149 -9.8671875 31.03515625 C-11.41924232 35.09725835 -13.17497481 39.05427516 -15 43 C-15.99 43 -16.98 43 -18 43 C-17.67 44.32 -17.34 45.64 -17 47 C-17.66 47 -18.32 47 -19 47 C-19.28643155 42.28435866 -18.54750055 39.39097369 -16.4375 35.1875 C-13.90188772 29.96078978 -11.60603476 24.7013952 -9.4375 19.3125 C-2.70286116 2.70286116 -2.70286116 2.70286116 0 0 Z " fill="#ED8C89" transform="translate(248,291)"/>
<path d="M0 0 C2 3 2 3 2 5 C2.66 5 3.32 5 4 5 C5.74794606 19.10842175 7.4517763 38.6415114 -1 51 C-2.64938047 51.70835462 -4.31687928 52.37603936 -6 53 C-8.31501804 56.01283733 -8.31501804 56.01283733 -10 59 C-10.66 58.67 -11.32 58.34 -12 58 C-11.67 56.35 -11.34 54.7 -11 53 C-10.34 53 -9.68 53 -9 53 C-8.896875 52.360625 -8.79375 51.72125 -8.6875 51.0625 C-8.460625 50.381875 -8.23375 49.70125 -8 49 C-6.515 48.505 -6.515 48.505 -5 48 C-3.96514123 45.68191636 -2.9644586 43.34824702 -2 41 C-1.01 40.505 -1.01 40.505 0 40 C2.79441252 33.26800619 2.22281924 26.23716499 2.125 19.0625 C2.11597656 17.80630859 2.10695313 16.55011719 2.09765625 15.25585938 C2.07419249 12.17037478 2.04136201 9.08528795 2 6 C1.34 6 0.68 6 0 6 C0 4.02 0 2.04 0 0 Z " fill="#BF3638" transform="translate(386,271)"/>
<path d="M0 0 C0 0.33 0 0.66 0 1 C-1.33402882 0.88265487 -2.6672014 0.75557824 -4 0.625 C-5.11375 0.52058594 -5.11375 0.52058594 -6.25 0.4140625 C-9 0 -9 0 -12.7265625 -0.9765625 C-17.24453618 -2.14259368 -21.73619672 -2.59000712 -26.375 -3 C-36.26989184 -3.93633559 -36.26989184 -3.93633559 -41.125 -5.125 C-45.74207085 -6.16835943 -50.28811627 -6.18261722 -55 -6.1875 C-55.75555176 -6.18830566 -56.51110352 -6.18911133 -57.28955078 -6.18994141 C-61.27501235 -6.22374954 -61.27501235 -6.22374954 -65 -5 C-66.54023996 -4.93049459 -68.08334988 -4.91547643 -69.625 -4.9375 C-70.85089844 -4.95103516 -70.85089844 -4.95103516 -72.1015625 -4.96484375 C-73.04128906 -4.98224609 -73.04128906 -4.98224609 -74 -5 C-56.1201468 -16.91990213 -18.94071184 -6.06582291 0 0 Z " fill="#E56665" transform="translate(367,160)"/>
<path d="M0 0 C2.0625 0.4375 2.0625 0.4375 4 1 C-0.5937767 3.40182234 -5.04727928 5.42413432 -10 7 C-10.58233398 7.34401855 -11.16466797 7.68803711 -11.76464844 8.04248047 C-14.77272784 9.33100028 -17.24939612 9.22500549 -20.515625 9.1953125 C-22.39121094 9.18564453 -22.39121094 9.18564453 -24.3046875 9.17578125 C-25.60664063 9.15902344 -26.90859375 9.14226562 -28.25 9.125 C-29.56742188 9.11597656 -30.88484375 9.10695313 -32.2421875 9.09765625 C-35.49497462 9.07408533 -38.74739589 9.04118022 -42 9 C-39.5653616 6.14443715 -39.12297121 6.01386801 -35.0859375 5.55859375 C-33.51597068 5.50648976 -31.94555968 5.46670495 -30.375 5.4375 C-20.00331427 5.68228422 -20.00331427 5.68228422 -11 2 C-8.42102306 1.67762788 -5.84068179 1.48732696 -3.25 1.28125 C-1.03334648 1.23799335 -1.03334648 1.23799335 0 0 Z " fill="#9E1111" transform="translate(186,347)"/>
<path d="M0 0 C5.75 -0.125 5.75 -0.125 8 1 C8 1.66 8 2.32 8 3 C8.680625 2.938125 9.36125 2.87625 10.0625 2.8125 C13.82022484 3.05235478 16.5520264 4.51380448 20 6 C22.32156597 6.40729228 24.6568787 6.74438677 27 7 C28.0725 7.20625 29.145 7.4125 30.25 7.625 C33.08337611 8.21748999 33.08337611 8.21748999 36 7 C38.00720923 7.28674418 40.00630969 7.63079809 42 8 C44.99645638 8.36721279 47.99749792 8.68640534 51 9 C51.495 10.485 51.495 10.485 52 12 C53.98 12.33 55.96 12.66 58 13 C58 13.33 58 13.66 58 14 C52.70383391 14.23538516 47.94621339 13.51665045 42.75 12.5 C40.36375155 12.06613665 38.03837443 11.7754448 35.625 11.5625 C29.1995691 10.92112305 21.80399504 9.90199752 16 7 C14.00448218 6.64080679 12.00451121 6.30503431 10 6 C10 5.34 10 4.68 10 4 C9.0925 3.896875 8.185 3.79375 7.25 3.6875 C3.98038425 2.99585051 2.46282263 2.17865079 0 0 Z " fill="#B01012" transform="translate(242,339)"/>
<path d="M0 0 C1.43739513 -0.02712066 2.87493863 -0.04645067 4.3125 -0.0625 C5.51326172 -0.07990234 5.51326172 -0.07990234 6.73828125 -0.09765625 C9 0 9 0 12 1 C14.72883073 1.15370348 17.43697142 1.25728265 20.16796875 1.31640625 C20.96278152 1.33718735 21.7575943 1.35796844 22.57649231 1.37937927 C25.11340763 1.44472087 27.65042573 1.50368808 30.1875 1.5625 C31.90821372 1.60569986 33.62891708 1.64931463 35.34960938 1.69335938 C39.56630113 1.80038648 43.7830962 1.90169724 48 2 C47.67 2.66 47.34 3.32 47 4 C43.48619567 5.17126811 40.3189942 5.14352452 36.6640625 5.1328125 C35.94769623 5.13376923 35.23132996 5.13472595 34.49325562 5.13571167 C32.97857577 5.13639167 31.46389299 5.13454995 29.94921875 5.13037109 C27.64055763 5.12503595 25.33209245 5.13031403 23.0234375 5.13671875 C21.54947874 5.13605763 20.0755201 5.13477577 18.6015625 5.1328125 C17.57163681 5.13584885 17.57163681 5.13584885 16.52090454 5.13894653 C12.88863889 5.12134884 9.53279344 4.85785459 6 4 C6 3.34 6 2.68 6 2 C4.35 2 2.7 2 1 2 C0.67 1.34 0.34 0.68 0 0 Z " fill="#7C1111" transform="translate(278,354)"/>
<path d="M0 0 C0.33 0 0.66 0 1 0 C1.04630297 13.23005058 1.08185886 26.46008194 1.10362434 39.69019699 C1.1140697 45.83320728 1.12824269 51.9761622 1.15087891 58.11914062 C1.17258035 64.04540808 1.18456296 69.97162222 1.18975449 75.89792633 C1.19345509 78.16099131 1.20068125 80.42405331 1.21146011 82.68709564 C1.22593904 85.85233407 1.22797943 89.01735107 1.22705078 92.18261719 C1.23424133 93.12201141 1.24143188 94.06140564 1.24884033 95.02926636 C1.246091 95.89300873 1.24334167 96.7567511 1.24050903 97.64666748 C1.24235262 98.39516338 1.24419621 99.14365929 1.24609566 99.91483688 C0.9568004 102.36602927 0.35143635 103.93629008 -1 106 C-2.485 106.495 -2.485 106.495 -4 107 C-4 105.35 -4 103.7 -4 102 C-3.34 102 -2.68 102 -2 102 C-0.80404898 81.81704253 -0.68439686 61.61574245 -0.46777344 41.40441895 C-0.41679439 36.72400801 -0.36151459 32.04364785 -0.30664062 27.36328125 C-0.20031466 18.24223125 -0.09861183 9.12113644 0 0 Z " fill="#D5181B" transform="translate(224,207)"/>
<path d="M0 0 C0.33 0 0.66 0 1 0 C1.375 3.25 1.375 3.25 1 7 C-5.51816792 12.88224909 -12.91010788 13.3884072 -21.30078125 13.26171875 C-25.47444568 12.96643309 -29.51309101 12.38089652 -33.625 11.625 C-34.31198975 11.49907471 -34.99897949 11.37314941 -35.70678711 11.2434082 C-39.0348992 10.57712157 -41.13587183 9.90941878 -44 8 C-43.23969482 8.0407666 -42.47938965 8.0815332 -41.69604492 8.12353516 C-38.1937332 8.30382271 -34.69077289 8.46451691 -31.1875 8.625 C-29.99189453 8.68945312 -28.79628906 8.75390625 -27.56445312 8.8203125 C-18.46175244 9.21716049 -9.35615926 9.0693868 -1 5 C-0.10613836 2.45224694 -0.10613836 2.45224694 0 0 Z " fill="#F6928E" transform="translate(327,299)"/>
<path d="M0 0 C0.66 0.33 1.32 0.66 2 1 C-0.85820047 11.50330579 -4.9889398 21.34906924 -10 31 C-15.47932789 29.45454854 -20.11429181 26.84456788 -25 24 C-25 23.67 -25 23.34 -25 23 C-19.17728663 22.40279863 -15.0790596 24.471757 -10 27 C-9.896875 26.030625 -9.79375 25.06125 -9.6875 24.0625 C-8.36449036 15.1411242 -4.47310563 7.74469745 0 0 Z " fill="#C02427" transform="translate(378,185)"/>
<path d="M0 0 C0 0.66 0 1.32 0 2 C-4.3014976 3.46880406 -8.62726567 4.76105861 -13 6 C-13.7528125 6.25007812 -14.505625 6.50015625 -15.28125 6.7578125 C-19.89890867 8.26293542 -23.94583882 9.12909958 -28.8125 9.3125 C-32.54397057 9.49133512 -32.54397057 9.49133512 -35.62890625 11.35546875 C-36.78422235 12.88019627 -37.8942558 14.43894937 -39 16 C-41.8125 16.875 -41.8125 16.875 -44 17 C-39.28501848 10.89825921 -35.2823345 7.23268744 -27.4375 5.9375 C-26.52871094 5.82277344 -25.61992187 5.70804688 -24.68359375 5.58984375 C-21.93062105 5.14048127 -21.93062105 5.14048127 -19.60546875 3.515625 C-16.35125174 1.6226172 -13.59881164 1.27501164 -9.875 0.8125 C-8.04582031 0.57466797 -8.04582031 0.57466797 -6.1796875 0.33203125 C-3 0 -3 0 0 0 Z " fill="#EB4747" transform="translate(299,157)"/>
<path d="M0 0 C6.72045875 2.19037174 13.36724003 4.55765661 20 7 C18.83805848 13.46712188 16.8751252 19.09622349 14 25 C13.67 25 13.34 25 13 25 C13.33 21.7 13.66 18.4 14 15 C14.33 15 14.66 15 15 15 C15 13.02 15 11.04 15 9 C13.73392393 8.46770674 12.46189588 7.94955456 11.1875 7.4375 C10.47980469 7.14746094 9.77210938 6.85742188 9.04296875 6.55859375 C6.8264933 5.74936976 6.8264933 5.74936976 4 7 C3.67 6.34 3.34 5.68 3 5 C2.34 5.66 1.68 6.32 1 7 C-1.125 6.625 -1.125 6.625 -3 6 C-2.01 5.67 -1.02 5.34 0 5 C0 3.35 0 1.7 0 0 Z " fill="#E64848" transform="translate(367,161)"/>
<path d="M0 0 C-1.3125 1.96484375 -1.3125 1.96484375 -3 4 C-4.99285937 4.37366113 -6.99363529 4.70740515 -9 5 C-10.85801239 6.43691955 -10.85801239 6.43691955 -12 8 C-12.99 7.34 -13.98 6.68 -15 6 C-16.32 6.99 -17.64 7.98 -19 9 C-19.99 8.01 -20.98 7.02 -22 6 C-17.88934426 0.31762295 -17.88934426 0.31762295 -14.375 -0.9375 C-9.53996405 -1.0270377 -4.79951052 -0.55510353 0 0 Z " fill="#EC2D2F" transform="translate(282,166)"/>
<path d="M0 0 C1.32 0.66 2.64 1.32 4 2 C-3.20651068 19.60325534 -3.20651068 19.60325534 -6 21 C-6.42961221 23.05931532 -6.42961221 23.05931532 -6.5625 25.4375 C-6.90666667 29.81333333 -6.90666667 29.81333333 -8 32 C-8.66 32 -9.32 32 -10 32 C-10 32.66 -10 33.32 -10 34 C-10.66 34 -11.32 34 -12 34 C-11.3949658 29.28217377 -10.0703988 25.32428577 -8.25 20.9375 C-7.71014031 19.62272288 -7.17109422 18.30761144 -6.6328125 16.9921875 C-6.36114258 16.33186523 -6.08947266 15.67154297 -5.80957031 14.99121094 C-3.79107568 10.026542 -1.90849861 5.00769768 0 0 Z " fill="#ED9995" transform="translate(122,302)"/>
<path d="M0 0 C0.98226562 0.52400391 0.98226562 0.52400391 1.984375 1.05859375 C2.89703125 1.51363281 3.8096875 1.96867188 4.75 2.4375 C5.63171875 2.88996094 6.5134375 3.34242188 7.421875 3.80859375 C16.55013219 6.84802437 26.73095603 6.13555051 36.25 6.0625 C37.38824219 6.05798828 38.52648437 6.05347656 39.69921875 6.04882812 C42.46620409 6.03720214 45.23307158 6.02086431 48 6 C44.42759941 8.38160039 42.64105587 8.31499763 38.390625 8.44921875 C36.42222656 8.51399414 36.42222656 8.51399414 34.4140625 8.58007812 C33.72989258 8.59756104 33.04572266 8.61504395 32.34082031 8.63305664 C30.2709361 8.68695484 28.20210949 8.75730242 26.1328125 8.83007812 C9.19609709 9.33552805 9.19609709 9.33552805 3 4 C2.01 4 1.02 4 0 4 C0 2.68 0 1.36 0 0 Z " fill="#E83B3B" transform="translate(169,156)"/>
<path d="M0 0 C0.28875 0.886875 0.5775 1.77375 0.875 2.6875 C1.90515491 5.93241467 1.90515491 5.93241467 3.25 8.625 C4 11 4 11 3.125 13.3125 C2.568125 14.1478125 2.568125 14.1478125 2 15 C0.32700041 14.34938905 -1.33859237 13.67966676 -3 13 C-3.7425 12.731875 -4.485 12.46375 -5.25 12.1875 C-7 11 -7 11 -7.75 8.375 C-7.8325 7.59125 -7.915 6.8075 -8 6 C-7.01 6 -6.02 6 -5 6 C-4.71125 5.195625 -4.4225 4.39125 -4.125 3.5625 C-2.56097561 0 -2.56097561 0 0 0 Z " fill="#B21513" transform="translate(238,328)"/>
<path d="M0 0 C5.03120363 0.38701566 8.43552683 2.18460415 12.65625 4.74609375 C17.62920793 7.40662624 22.28047925 8.28247832 27.875 8.625 C29.02742188 8.69976562 30.17984375 8.77453125 31.3671875 8.8515625 C32.67042969 8.92503906 32.67042969 8.92503906 34 9 C33.67 9.66 33.34 10.32 33 11 C21.02423876 11.40981692 11.01659307 10.14432137 1 3 C0.67 2.01 0.34 1.02 0 0 Z " fill="#F3A09F" transform="translate(123,300)"/>
<path d="M0 0 C10.36078842 0.03442122 17.83518711 2.50690582 27 7 C27 7.66 27 8.32 27 9 C27.99 9.33 28.98 9.66 30 10 C29.67 11.65 29.34 13.3 29 15 C28.67 14.01 28.34 13.02 28 12 C25.76522922 10.72534392 25.76522922 10.72534392 22.9375 9.6875 C21.86886719 9.2646875 20.80023438 8.841875 19.69921875 8.40625 C18.47847656 7.9421875 17.25773437 7.478125 16 7 C14.94353271 6.5978125 14.94353271 6.5978125 13.86572266 6.1875 C9.25232934 4.43503932 4.62943432 2.70960075 0 1 C0 0.67 0 0.34 0 0 Z " fill="#F3B1AE" transform="translate(358,157)"/>
<path d="M0 0 C4.21775732 1.35525536 8.29421322 2.90200114 12.375 4.625 C13.96441406 5.29402344 13.96441406 5.29402344 15.5859375 5.9765625 C16.38257813 6.31429688 17.17921875 6.65203125 18 7 C14.57056481 8.18771723 12.62215325 7.80226223 9.25 6.5625 C8.45078125 6.27503906 7.6515625 5.98757813 6.828125 5.69140625 C6.22484375 5.46324219 5.6215625 5.23507812 5 5 C5 4.34 5 3.68 5 3 C3.04105639 3.11306697 3.04105639 3.11306697 1 4 C-0.52164099 6.89111788 -1 8.71823412 -1 12 C-1 12.66 -1 13.32 -1 14 C-1.66 14 -2.32 14 -3 14 C-3.2475 14.53625 -3.495 15.0725 -3.75 15.625 C-5.30084957 18.57161419 -7.08305558 21.27917566 -9 24 C-9.33 24 -9.66 24 -10 24 C-9.67 21.36 -9.34 18.72 -9 16 C-8.34 16.33 -7.68 16.66 -7 17 C-6.57847656 15.85660156 -6.15695313 14.71320313 -5.72265625 13.53515625 C-5.16941479 12.04421741 -4.61602153 10.55333489 -4.0625 9.0625 C-3.78470703 8.30775391 -3.50691406 7.55300781 -3.22070312 6.77539062 C-1.11328125 1.11328125 -1.11328125 1.11328125 0 0 Z " fill="#E32D2C" transform="translate(125,304)"/>
<path d="M0 0 C1.60488281 0.08507812 1.60488281 0.08507812 3.2421875 0.171875 C5.8705331 0.31267923 8.49782566 0.46402274 11.125 0.625 C11.125 0.955 11.125 1.285 11.125 1.625 C10.19602905 1.69231323 10.19602905 1.69231323 9.24829102 1.76098633 C6.3936669 1.97463748 3.54072669 2.2059602 0.6875 2.4375 C-0.28638672 2.50775391 -1.26027344 2.57800781 -2.26367188 2.65039062 C-7.81041621 3.11416523 -12.67358845 3.95819244 -17.8671875 5.9921875 C-21.23677514 7.05419761 -24.37122627 6.81611493 -27.875 6.625 C-26.875 4.625 -26.875 4.625 -25.01953125 3.84375 C-24.24996094 3.6065625 -23.48039062 3.369375 -22.6875 3.125 C-21.55248047 2.76921875 -21.55248047 2.76921875 -20.39453125 2.40625 C-19.56308594 2.1484375 -18.73164063 1.890625 -17.875 1.625 C-17.03066406 1.25632813 -16.18632812 0.88765625 -15.31640625 0.5078125 C-10.17584591 -0.81087835 -5.2635399 -0.3241096 0 0 Z " fill="#EB3435" transform="translate(315.875,159.375)"/>
<path d="M0 0 C-0.66 1.32 -1.32 2.64 -2 4 C-2.99 4 -3.98 4 -5 4 C-5.33 4.99 -5.66 5.98 -6 7 C-6.64066406 7.04898437 -7.28132813 7.09796875 -7.94140625 7.1484375 C-13.20535053 7.60344312 -17.93046392 8.44014274 -23 10 C-24.99488234 10.36270588 -26.9937811 10.70640699 -29 11 C-29.33 10.34 -29.66 9.68 -30 9 C-25.28272454 7.12935628 -21.05214267 5.67361902 -16 5 C-10.48149298 4.05781587 -5.1814791 0 0 0 Z " fill="#B61114" transform="translate(191,342)"/>
<path d="M0 0 C0.70189453 0.00451172 1.40378906 0.00902344 2.12695312 0.01367188 C3.85550538 0.02543073 5.58401365 0.04336546 7.3125 0.0625 C7.3125 0.3925 7.3125 0.7225 7.3125 1.0625 C6.72082031 1.11148438 6.12914062 1.16046875 5.51953125 1.2109375 C1.07454462 1.6315072 -2.58224423 2.22593821 -6.6875 4.0625 C-7.80125 4.371875 -8.915 4.68125 -10.0625 5 C-13.74094838 5.98477716 -13.74094838 5.98477716 -17.25 7.6875 C-20.71284454 9.07263782 -23.00541451 9.33192089 -26.6875 9.0625 C-24.05948723 5.85257012 -21.02277695 4.84549582 -17.1875 3.4375 C-16.0428125 3.01210937 -14.898125 2.58671875 -13.71875 2.1484375 C-8.92439643 0.43087269 -5.05530126 -0.0613622 0 0 Z " fill="#E85B5A" transform="translate(294.6875,154.9375)"/>
<path d="M0 0 C0.495 1.98 0.495 1.98 1 4 C-3.01535068 5.90079664 -6.18996591 6.23570807 -10.61328125 6.1953125 C-11.86044922 6.18886719 -13.10761719 6.18242187 -14.39257812 6.17578125 C-15.68615234 6.15902344 -16.97972656 6.14226562 -18.3125 6.125 C-19.62541016 6.11597656 -20.93832031 6.10695312 -22.29101562 6.09765625 C-25.52752913 6.07411797 -28.76367149 6.0412352 -32 6 C-31.67 5.34 -31.34 4.68 -31 4 C-29.13408203 3.92652344 -29.13408203 3.92652344 -27.23046875 3.8515625 C-12.70853717 4.34791412 -12.70853717 4.34791412 0 0 Z " fill="#EC4C48" transform="translate(225,156)"/>
<path d="M0 0 C1.92157722 4.94119858 -0.58681734 8.94247429 -2.453125 13.58203125 C-4.59174693 18.30752163 -7.15523559 22.66931054 -10 27 C-11.0546875 25.140625 -11.0546875 25.140625 -12 23 C-11.125 20.75 -11.125 20.75 -10 19 C-9.34 19 -8.68 19 -8 19 C-7.02611519 16.15325978 -6.08500993 13.31663813 -5.3046875 10.41015625 C-5.05976563 9.51167969 -4.81484375 8.61320312 -4.5625 7.6875 C-4.33691406 6.82511719 -4.11132812 5.96273438 -3.87890625 5.07421875 C-3.58886719 4.38972656 -3.29882812 3.70523437 -3 3 C-2.01 2.67 -1.02 2.34 0 2 C0 1.34 0 0.68 0 0 Z " fill="#9B2525" transform="translate(223,311)"/>
<path d="M0 0 C0.33 0 0.66 0 1 0 C1 5.28 1 10.56 1 16 C0.67 16 0.34 16 0 16 C0 21.28 0 26.56 0 32 C0.66 32 1.32 32 2 32 C2.38909985 33.45463481 2.76088029 34.91391207 3.125 36.375 C3.33382812 37.18710938 3.54265625 37.99921875 3.7578125 38.8359375 C3.83773437 39.55007812 3.91765625 40.26421875 4 41 C3.34 41.66 2.68 42.32 2 43 C-0.80090887 34.63478555 -2.38900052 26.95670154 -2.375 18.125 C-2.37628906 17.35373779 -2.37757813 16.58247559 -2.37890625 15.7878418 C-2.27608826 10.33206228 -1.35886889 5.27754026 0 0 Z " fill="#E17374" transform="translate(238,195)"/>
<path d="M0 0 C0.44988281 0.31453125 0.89976562 0.6290625 1.36328125 0.953125 C6.9357069 4.66063064 12.65931376 6.91363449 19 9 C19 9.99 19 10.98 19 12 C20.32 12.33 21.64 12.66 23 13 C21 14 21 14 17.48046875 12.92578125 C16.04643593 12.39618959 14.61554526 11.85803109 13.1875 11.3125 C12.11918945 10.92674805 12.11918945 10.92674805 11.02929688 10.53320312 C6.78713391 8.93601503 3.21998864 7.30855414 0 4 C0 2.68 0 1.36 0 0 Z " fill="#EF9391" transform="translate(300,214)"/>
<path d="M0 0 C1.85044922 0.01353516 1.85044922 0.01353516 3.73828125 0.02734375 C6.74240024 0.05063149 9.74608943 0.08333244 12.75 0.125 C12.75 0.455 12.75 0.785 12.75 1.125 C12.19127197 1.14481934 11.63254395 1.16463867 11.05688477 1.18505859 C8.47502582 1.2815219 5.89384608 1.39069812 3.3125 1.5 C2.43400391 1.5309375 1.55550781 1.561875 0.65039062 1.59375 C-4.48668412 1.82122194 -9.23915687 2.45013994 -14.23364258 3.66601562 C-16.93824139 4.28166471 -19.61005221 4.51045293 -22.375 4.6875 C-26.71135325 4.99803169 -30.95762181 5.44212165 -35.25 6.125 C-25.16169723 -0.60053518 -11.66318809 -0.16462698 0 0 Z " fill="#F4BCB8" transform="translate(309.25,150.875)"/>
<path d="M0 0 C0.99 0.33 1.98 0.66 3 1 C2.55269531 1.46148437 2.10539063 1.92296875 1.64453125 2.3984375 C-3.07990624 7.49559181 -6.18204303 12.66284331 -9 19 C-9.66 19 -10.32 19 -11 19 C-11 19.99 -11 20.98 -11 22 C-11.66 22 -12.32 22 -13 22 C-12.46515599 16.65155992 -10.53309233 12.64203897 -8 8 C-7.34 8 -6.68 8 -6 8 C-5.7525 7.236875 -5.505 6.47375 -5.25 5.6875 C-3.8744729 2.73011673 -2.84548949 1.55208517 0 0 Z " fill="#EB817F" transform="translate(252,173)"/>
<path d="M0 0 C7.73707676 1.44250584 14.72676081 4.0242154 22 7 C22.63824707 7.25894043 23.27649414 7.51788086 23.93408203 7.78466797 C25.87675524 8.5762341 27.81415888 9.37938411 29.75 10.1875 C30.92046875 10.67605469 32.0909375 11.16460937 33.296875 11.66796875 C36 13 36 13 37 15 C35.35 15 33.7 15 32 15 C31.67 14.34 31.34 13.68 31 13 C28.65062258 12.0416631 26.33781945 11.18214554 23.9375 10.375 C23.27427734 10.14554688 22.61105469 9.91609375 21.92773438 9.6796875 C20.28740331 9.11324224 18.64397843 8.55577077 17 8 C17 7.34 17 6.68 17 6 C16.443125 5.97421875 15.88625 5.9484375 15.3125 5.921875 C9.31706452 5.47626831 5.23258464 3.94927498 0 1 C0 0.67 0 0.34 0 0 Z " fill="#D92327" transform="translate(323,229)"/>
<path d="M0 0 C-0.33 1.32 -0.66 2.64 -1 4 C-1.66 4 -2.32 4 -3 4 C-3.33644531 4.87398438 -3.33644531 4.87398438 -3.6796875 5.765625 C-5.37805353 8.6397829 -7.35834074 9.9055605 -10.125 11.75 C-11.49011719 12.67039062 -11.49011719 12.67039062 -12.8828125 13.609375 C-13.93082031 14.29773438 -13.93082031 14.29773438 -15 15 C-15.66 14.67 -16.32 14.34 -17 14 C-17 13.34 -17 12.68 -17 12 C-18.65 12 -20.3 12 -22 12 C-21 10 -21 10 -18.34765625 9.11328125 C-16.72150391 8.71689453 -16.72150391 8.71689453 -15.0625 8.3125 C-13.98097656 8.04050781 -12.89945313 7.76851563 -11.78515625 7.48828125 C-9 7 -9 7 -7 8 C-6.9175 7.4225 -6.835 6.845 -6.75 6.25 C-5.66186883 2.98560649 -3.65852651 0 0 0 Z " fill="#961F21" transform="translate(212,336)"/>
<path d="M0 0 C8.26405949 -0.56993514 15.1977858 1.51394597 23 4 C23 4.66 23 5.32 23 6 C20.12396656 5.71661725 17.24946149 5.42358747 14.375 5.125 C13.56675781 5.04636719 12.75851562 4.96773437 11.92578125 4.88671875 C7.36500951 4.40468596 3.31454415 3.6615882 -1 2 C-0.67 1.34 -0.34 0.68 0 0 Z " fill="#E93133" transform="translate(328,160)"/>
<path d="M0 0 C5.02068309 0.08965506 9.30349816 1.47204537 13.9375 3.3125 C13.9375 4.6325 13.9375 5.9525 13.9375 7.3125 C9.60607709 6.51349966 5.37333732 5.40050666 1.125 4.25 C0.43212891 4.06373047 -0.26074219 3.87746094 -0.97460938 3.68554688 C-2.67095641 3.22928802 -4.3667818 2.77109046 -6.0625 2.3125 C-3.71017727 -0.03982273 -3.19969668 0.01692961 0 0 Z " fill="#EB3F3F" transform="translate(343.0625,158.6875)"/>
<path d="M0 0 C1.30230734 3.00646952 0.96485975 4.09355667 -0.21484375 7.234375 C-0.78332031 8.39453125 -1.35179687 9.5546875 -1.9375 10.75 C-2.50339844 11.92046875 -3.06929687 13.0909375 -3.65234375 14.296875 C-4.09707031 15.18890625 -4.54179687 16.0809375 -5 17 C-5.99 17 -6.98 17 -8 17 C-7.67 18.32 -7.34 19.64 -7 21 C-7.66 21 -8.32 21 -9 21 C-9.961384 13.69348163 -5.88327186 7.54496198 -1.6875 1.875 C-1.130625 1.25625 -0.57375 0.6375 0 0 Z " fill="#E26C69" transform="translate(238,317)"/>
<path d="M0 0 C0.99 0.33 1.98 0.66 3 1 C2.835 1.721875 2.67 2.44375 2.5 3.1875 C2.71356652 5.96281312 2.71356652 5.96281312 4.2890625 7.26953125 C10.56816734 11.47786747 17.87766528 13.64922941 25 16 C19.09941056 18.36607795 12.44947259 14.29994445 7 12 C4.16666741 10.47657045 1.6402799 8.84819593 -1 7 C-0.67 4.69 -0.34 2.38 0 0 Z " fill="#D92328" transform="translate(298,212)"/>
<path d="M0 0 C2 3 2 3 1.625 5.1875 C1.41875 5.785625 1.2125 6.38375 1 7 C1.5053125 7.32613281 2.010625 7.65226562 2.53125 7.98828125 C3.50578125 8.64376953 3.50578125 8.64376953 4.5 9.3125 C5.1496875 9.74175781 5.799375 10.17101562 6.46875 10.61328125 C6.9740625 11.07089844 7.479375 11.52851563 8 12 C8 12.99 8 13.98 8 15 C3.80639551 14.32902328 0.59665648 12.1441606 -3 10 C-2.39009109 6.44219804 -1.4216319 3.3171411 0 0 Z " fill="#8B3334" transform="translate(109,336)"/>
<path d="M0 0 C0.66 0 1.32 0 2 0 C0.8905928 3.48670834 -0.26337666 6.77484237 -2 10 C-2.66 10 -3.32 10 -4 10 C-4.33 10.99 -4.66 11.98 -5 13 C-7.375 14.25 -7.375 14.25 -10 15 C-10.99 14.67 -11.98 14.34 -13 14 C-11.625 12 -11.625 12 -10 10 C-9.34 10 -8.68 10 -8 10 C-8 9.34 -8 8.68 -8 8 C-7.4225 7.979375 -6.845 7.95875 -6.25 7.9375 C-2.61609879 6.4233745 -1.75149584 3.44043825 0 0 Z " fill="#C01618" transform="translate(217,320)"/>
<path d="M0 0 C1.9430866 2.2810147 2.94505477 3.61538339 3.375 6.625 C3.684375 7.800625 3.684375 7.800625 4 9 C6.47130918 10.15521502 6.47130918 10.15521502 9 11 C9.33 11.99 9.66 12.98 10 14 C10.99 14.33 11.98 14.66 13 15 C13.33 16.98 13.66 18.96 14 21 C7.10518142 15.61469792 1.18037662 9.72150648 -1 1 C-0.67 0.67 -0.34 0.34 0 0 Z " fill="#B93937" transform="translate(242,237)"/>
<path d="M0 0 C2.12493141 -0.02693575 4.24995912 -0.04636628 6.375 -0.0625 C7.55835938 -0.07410156 8.74171875 -0.08570313 9.9609375 -0.09765625 C13 0 13 0 15 1 C15 1.66 15 2.32 15 3 C17.97 3.99 20.94 4.98 24 6 C24 6.66 24 7.32 24 8 C23.44054687 7.82984375 22.88109375 7.6596875 22.3046875 7.484375 C14.89214065 5.24392676 7.44931312 3.11457447 0 1 C0 0.67 0 0.34 0 0 Z " fill="#AD302F" transform="translate(329,200)"/>
<path d="M0 0 C6.1112924 1.0388092 12.07704464 2.15730278 18 4 C17.67 4.99 17.34 5.98 17 7 C12.32679755 7.42483659 9.21196877 5.92124891 5 4 C3.00736409 3.31163487 1.00958663 2.63718601 -1 2 C-0.67 1.34 -0.34 0.68 0 0 Z " fill="#EC504E" transform="translate(347,157)"/>
<path d="M0 0 C6.00333124 -0.6319296 10.63404795 1.62455877 16 4 C16.33 2.68 16.66 1.36 17 0 C17.33 0.66 17.66 1.32 18 2 C17.06553465 4.03144641 16.06775224 6.03533587 15 8 C9.52067211 6.45454854 4.88570819 3.84456788 0 1 C0 0.67 0 0.34 0 0 Z " fill="#B03031" transform="translate(353,208)"/>
<path d="M0 0 C6.58839543 0.14850891 10.78529872 1.11185763 16.171875 4.921875 C18.80110253 6.47244508 21.03020554 6.37122431 24 6 C24 7.32 24 8.64 24 10 C21.48329792 9.58054965 19.34014107 9.17555668 17.0625 8 C14.89353668 6.82459687 14.89353668 6.82459687 11.8125 6.5 C10.884375 6.335 9.95625 6.17 9 6 C8.67 5.34 8.34 4.68 8 4 C6.11736119 3.09656316 6.11736119 3.09656316 3.9375 2.375 C3.20402344 2.11460937 2.47054688 1.85421875 1.71484375 1.5859375 C1.14894531 1.39257812 0.58304687 1.19921875 0 1 C0 0.67 0 0.34 0 0 Z " fill="#CE191C" transform="translate(344,202)"/>
<path d="M0 0 C4.22753978 1.49207286 5.38203428 3.95658572 7.3125 7.875 C7.84488281 8.92429687 8.37726563 9.97359375 8.92578125 11.0546875 C10.01275696 14.03497727 10.18651988 15.12737292 9 18 C0 3.79918033 0 3.79918033 0 0 Z " fill="#E47175" transform="translate(379,258)"/>
<path d="M0 0 C0.66 0.33 1.32 0.66 2 1 C0.60886005 2.27596932 -0.78814413 3.54554648 -2.1875 4.8125 C-2.96480469 5.52019531 -3.74210937 6.22789062 -4.54296875 6.95703125 C-6.94067853 8.95067547 -9.21715014 10.59220536 -12 12 C-12.66 11.67 -13.32 11.34 -14 11 C-11.34345343 7.26115668 -9.41889613 5.35021826 -5 4 C-5 3.34 -5 2.68 -5 2 C-2.625 0.9375 -2.625 0.9375 0 0 Z " fill="#832123" transform="translate(373,335)"/>
<path d="M0 0 C0.99 0.33 1.98 0.66 3 1 C0.05355636 4.99874494 -2.09624997 7.36480468 -7 8.4375 C-9.47169467 9.13266413 -11.03142628 10.3829573 -13 12 C-13.66 11.34 -14.32 10.68 -15 10 C-14.236875 9.566875 -13.47375 9.13375 -12.6875 8.6875 C-10.07269668 7.19772337 -10.07269668 7.19772337 -8.5625 5.5 C-6.34721232 3.37332383 -3.75289173 2.31660039 -1 1 C-0.67 0.67 -0.34 0.34 0 0 Z " fill="#C71417" transform="translate(367,328)"/>
<path d="M0 0 C1.32 0 2.64 0 4 0 C4 0.66 4 1.32 4 2 C4.66 2 5.32 2 6 2 C6 2.66 6 3.32 6 4 C6.66 4 7.32 4 8 4 C9.38232443 5.62626404 10.71937515 7.2925002 12 9 C11.67 9.66 11.34 10.32 11 11 C8 11 8 11 6.24609375 9.3203125 C5.35083984 8.23363281 5.35083984 8.23363281 4.4375 7.125 C3.53837891 6.04605469 3.53837891 6.04605469 2.62109375 4.9453125 C2.08613281 4.30335938 1.55117188 3.66140625 1 3 C0.34 2.34 -0.32 1.68 -1 1 C-0.67 0.67 -0.34 0.34 0 0 Z " fill="#EC8C88" transform="translate(369,248)"/>
<path d="M0 0 C4.83573957 -0.56891054 7.20931338 1.11578192 11 4 C12.875 5.75 12.875 5.75 14 7 C13.67 7.99 13.34 8.98 13 10 C11.32819726 9.05065487 9.66266064 8.09026687 8 7.125 C7.071875 6.59132813 6.14375 6.05765625 5.1875 5.5078125 C4.465625 5.01023437 3.74375 4.51265625 3 4 C3 3.34 3 2.68 3 2 C2.01 2 1.02 2 0 2 C0 1.34 0 0.68 0 0 Z " fill="#F0B9B2" transform="translate(248,289)"/>
<path d="M0 0 C2.75 -0.3125 2.75 -0.3125 6 0 C10.31156576 3.71273718 11.3967588 8.53127243 12 14 C11.625 17.0625 11.625 17.0625 11 19 C10.67 19 10.34 19 10 19 C9.97421875 18.41992188 9.9484375 17.83984375 9.921875 17.2421875 C9.52385951 11.76042866 8.63119181 8.33725688 5 4 C2.3908613 1.67722584 2.3908613 1.67722584 0 0 Z " fill="#BF2F33" transform="translate(318,285)"/>
<path d="M0 0 C5.60674994 0.42106027 10.72545031 0.91471291 16 3 C16.94875 3.37125 17.8975 3.7425 18.875 4.125 C19.57625 4.41375 20.2775 4.7025 21 5 C17.44806348 6.20101451 14.72400293 5.8293019 11.0625 5.1875 C9.53302734 4.93033203 9.53302734 4.93033203 7.97265625 4.66796875 C5.14569701 4.03273875 2.65069022 3.15693109 0 2 C0 1.34 0 0.68 0 0 Z " fill="#9B1113" transform="translate(115,346)"/>
<path d="M0 0 C4.21775732 1.35525536 8.29421322 2.90200114 12.375 4.625 C13.96441406 5.29402344 13.96441406 5.29402344 15.5859375 5.9765625 C16.38257813 6.31429688 17.17921875 6.65203125 18 7 C14.57056481 8.18771723 12.62215325 7.80226223 9.25 6.5625 C8.45078125 6.27503906 7.6515625 5.98757813 6.828125 5.69140625 C5.92320312 5.34916016 5.92320312 5.34916016 5 5 C5 4.34 5 3.68 5 3 C3.68 3.33 2.36 3.66 1 4 C1 4.66 1 5.32 1 6 C0.01 5.67 -0.98 5.34 -2 5 C-1.34 3.35 -0.68 1.7 0 0 Z " fill="#DC2527" transform="translate(125,304)"/>
<path d="M0 0 C0.67417969 0.14308594 1.34835938 0.28617188 2.04296875 0.43359375 C5.45452342 1.08706195 8.87264382 1.58027717 12.3125 2.0625 C14.19388672 2.32740234 14.19388672 2.32740234 16.11328125 2.59765625 C17.06589844 2.73042969 18.01851562 2.86320313 19 3 C19.33 3.99 19.66 4.98 20 6 C12.31345427 5.74378181 6.64783942 4.96313504 0 1 C0 0.67 0 0.34 0 0 Z " fill="#EC4746" transform="translate(172,157)"/>
<path d="M0 0 C0 0.66 0 1.32 0 2 C0.99 2.33 1.98 2.66 3 3 C1.10614563 3.50744423 -0.79018666 4.00564574 -2.6875 4.5 C-3.74324219 4.7784375 -4.79898437 5.056875 -5.88671875 5.34375 C-8.71142672 5.9391715 -11.12836708 6.12786492 -14 6 C-10.35666424 1.44583029 -5.81697186 0 0 0 Z " fill="#8A1B1D" transform="translate(336,353)"/>
<path d="M0 0 C1.02802734 0.00322266 2.05605469 0.00644531 3.11523438 0.00976562 C4.72301758 0.02233398 4.72301758 0.02233398 6.36328125 0.03515625 C7.44673828 0.03966797 8.53019531 0.04417969 9.64648438 0.04882812 C12.3229721 0.06061882 14.99934902 0.07707562 17.67578125 0.09765625 C17.67578125 0.42765625 17.67578125 0.75765625 17.67578125 1.09765625 C16.37382812 1.13503906 15.071875 1.17242187 13.73046875 1.2109375 C12.00387868 1.27662299 10.27731744 1.34306943 8.55078125 1.41015625 C7.266875 1.44399414 7.266875 1.44399414 5.95703125 1.47851562 C-0.65077158 1.75807651 -4.79050863 3.40851617 -10.32421875 7.09765625 C-9.51171875 4.16015625 -9.51171875 4.16015625 -8.32421875 1.09765625 C-5.26502487 0.07792496 -3.2000385 -0.01767977 0 0 Z " fill="#AF3635" transform="translate(310.32421875,198.90234375)"/>
<path d="M0 0 C0.33 0 0.66 0 1 0 C1.375 3.25 1.375 3.25 1 7 C-2.42350929 10.02542682 -5.47126099 11.46720718 -10 12 C-8.6581656 7.97449681 -6.5772427 7.11714364 -3 5 C-2.34 5 -1.68 5 -1 5 C-0.67 3.35 -0.34 1.7 0 0 Z " fill="#EE8787" transform="translate(327,299)"/>
<path d="M0 0 C1.32 0.66 2.64 1.32 4 2 C3.21447823 3.96080624 2.42137877 5.91857816 1.625 7.875 C1.18414062 8.96554687 0.74328125 10.05609375 0.2890625 11.1796875 C-1 14 -1 14 -3 16 C-2.57910004 10.39538469 -2.08386889 5.27913453 0 0 Z " fill="#EB7472" transform="translate(122,302)"/>
<path d="M0 0 C6.27 0.66 12.54 1.32 19 2 C18.67 2.66 18.34 3.32 18 4 C11.59370576 4.20852314 6.07027358 4.1583195 0 2 C0 1.34 0 0.68 0 0 Z " fill="#F0BCBA" transform="translate(138,307)"/>
<path d="M0 0 C0.99 0 1.98 0 3 0 C1.68938409 4.23429756 0.05643741 8.07407404 -2 12 C-2.66 12 -3.32 12 -4 12 C-3.53898164 7.29761275 -2.96823597 3.76737643 0 0 Z " fill="#ED817E" transform="translate(248,291)"/>
<path d="M0 0 C0.33 0 0.66 0 1 0 C1.0543965 2.37531394 1.09385864 4.74935883 1.125 7.125 C1.15013672 8.12273437 1.15013672 8.12273437 1.17578125 9.140625 C1.21847278 13.49516056 0.59996217 16.95600114 -1 21 C-1.33 21 -1.66 21 -2 21 C-1.86179731 17.6871348 -1.71316222 14.37482011 -1.5625 11.0625 C-1.52318359 10.11697266 -1.48386719 9.17144531 -1.44335938 8.19726562 C-1.40146484 7.29814453 -1.35957031 6.39902344 -1.31640625 5.47265625 C-1.27974854 4.64000244 -1.24309082 3.80734863 -1.20532227 2.94946289 C-1 1 -1 1 0 0 Z " fill="#DA3030" transform="translate(169,283)"/>
<path d="M0 0 C0.66 0.33 1.32 0.66 2 1 C-1.33904488 6.88307907 -3.40089073 9.09359065 -10 11 C-8.71480435 8.13302508 -7.42870746 6.02392288 -5 4 C-4.34 4 -3.68 4 -3 4 C-3 3.34 -3 2.68 -3 2 C-2.01 1.34 -1.02 0.68 0 0 Z " fill="#F8C4C2" transform="translate(260,164)"/>
<path d="M0 0 C3.67098495 1.93209734 5.34593412 3.21927799 7 7 C8.5412312 8.70921589 8.5412312 8.70921589 10 10 C6.625 9.6875 6.625 9.6875 3 9 C1 6 1 6 1 3 C0.34 2.67 -0.32 2.34 -1 2 C-0.67 1.34 -0.34 0.68 0 0 Z " fill="#C01114" transform="translate(116,336)"/>
<path d="M0 0 C0.33 0.66 0.66 1.32 1 2 C-1.31 5.3 -3.62 8.6 -6 12 C-6.66 11.01 -7.32 10.02 -8 9 C-4 1.28571429 -4 1.28571429 0 0 Z " fill="#8F2123" transform="translate(383,322)"/>
<path d="M0 0 C5.91969002 1.75990784 11.41634992 4.39694605 17 7 C13.61725734 8.12758089 12.23221777 7.81750262 8.8125 7.0625 C7.91144531 6.86785156 7.01039063 6.67320312 6.08203125 6.47265625 C5.39496094 6.31667969 4.70789063 6.16070312 4 6 C3.896875 5.360625 3.79375 4.72125 3.6875 4.0625 C3.460625 3.381875 3.23375 2.70125 3 2 C2.01 1.67 1.02 1.34 0 1 C0 0.67 0 0.34 0 0 Z " fill="#F7C3BD" transform="translate(259,294)"/>
<path d="M0 0 C1.43861294 0.08746284 2.87597508 0.19565348 4.3125 0.3125 C5.11300781 0.37050781 5.91351563 0.42851562 6.73828125 0.48828125 C9.41109031 1.09301007 10.38866591 1.80462248 12 4 C12 4.99 12 5.98 12 7 C7.39104317 5.68315519 3.85859765 3.84801255 0 1 C0 0.67 0 0.34 0 0 Z " fill="#B53031" transform="translate(262,262)"/>
<path d="M0 0 C1.43410153 3.78819273 0.51009497 6.06521279 -0.9375 9.75 C-1.31777344 10.73484375 -1.69804687 11.7196875 -2.08984375 12.734375 C-2.39019531 13.48203125 -2.69054687 14.2296875 -3 15 C-3.33 15 -3.66 15 -4 15 C-4.05447047 13.58376784 -4.09300508 12.16691809 -4.125 10.75 C-4.14820313 9.96109375 -4.17140625 9.1721875 -4.1953125 8.359375 C-3.9828378 5.79268059 -3.28654105 4.2083933 -2 2 C-1.34 2 -0.68 2 0 2 C0 1.34 0 0.68 0 0 Z " fill="#B63334" transform="translate(223,311)"/>
<path d="M0 0 C0.99 0 1.98 0 3 0 C3.48736475 6.70126536 2.07708804 11.06561592 -1 17 C-1.33 17 -1.66 17 -2 17 C-1.67 13.7 -1.34 10.4 -1 7 C-0.67 7 -0.34 7 0 7 C0 4.69 0 2.38 0 0 Z " fill="#C43639" transform="translate(382,169)"/>
<path d="M0 0 C4.95 0.99 4.95 0.99 10 2 C9.67 2.66 9.34 3.32 9 4 C9.66 4.66 10.32 5.32 11 6 C7.0507432 5.44894091 3.65079826 4.61064629 0 3 C0 2.01 0 1.02 0 0 Z " fill="#852325" transform="translate(117,349)"/>
<path d="M0 0 C-1.0625 1.51171875 -1.0625 1.51171875 -3 3 C-6.25 3.14453125 -6.25 3.14453125 -10 2.8125 C-11.2375 2.71582031 -12.475 2.61914062 -13.75 2.51953125 C-17 2 -17 2 -20 0 C-19.35933594 0.01160156 -18.71867187 0.02320313 -18.05859375 0.03515625 C-13.96708002 0.0778397 -10.12384922 0.01769275 -6.0625 -0.5625 C-3 -1 -3 -1 0 0 Z " fill="#F2BEBA" transform="translate(320,308)"/>
<path d="M0 0 C0.66 0.33 1.32 0.66 2 1 C1.57316761 2.58624235 1.13303842 4.1689098 0.6875 5.75 C0.44386719 6.63171875 0.20023437 7.5134375 -0.05078125 8.421875 C-1.02125331 11.05772505 -2.21005644 12.85407326 -4 15 C-3.40546697 4.44191344 -3.40546697 4.44191344 0 0 Z " fill="#BC2E31" transform="translate(378,185)"/>
<path d="M0 0 C0.66 0.33 1.32 0.66 2 1 C2 1.66 2 2.32 2 3 C2.69867188 3.12117188 3.39734375 3.24234375 4.1171875 3.3671875 C5.02726563 3.53476562 5.93734375 3.70234375 6.875 3.875 C7.77992188 4.03742188 8.68484375 4.19984375 9.6171875 4.3671875 C12 5 12 5 14 7 C9.63369099 7.25684171 6.03503582 7.4224636 1.9375 5.75 C1.298125 5.1725 0.65875 4.595 0 4 C0 2.68 0 1.36 0 0 Z " fill="#BE1114" transform="translate(128,342)"/>
<path d="M0 0 C5.37305699 -0.35233161 5.37305699 -0.35233161 8 0 C10 2 10 2 11 4 C10.34 5.32 9.68 6.64 9 8 C6.08482708 6.92598892 4.22189824 6.22189824 2 4 C3.65 4.33 5.3 4.66 7 5 C7 4.34 7 3.68 7 3 C6.401875 2.87625 5.80375 2.7525 5.1875 2.625 C3 2 3 2 0 0 Z " fill="#9F2A2B" transform="translate(231,335)"/>
<path d="M0 0 C-1.25 1.5625 -1.25 1.5625 -3 3 C-5 2.6875 -5 2.6875 -7 2 C-7.99 2 -8.98 2 -10 2 C-10.99 2 -11.98 2 -13 2 C-11.14255768 -0.37339853 -10.02152312 -0.9940468 -7.0625 -1.8125 C-3.89975932 -2.00613718 -2.60614131 -1.70401547 0 0 Z " fill="#ED3838" transform="translate(275,167)"/>
<path d="M0 0 C1.18851562 0.00902344 2.37703125 0.01804688 3.6015625 0.02734375 C4.51679688 0.03894531 5.43203125 0.05054688 6.375 0.0625 C6.045 0.7225 5.715 1.3825 5.375 2.0625 C2.72265625 2.546875 2.72265625 2.546875 -0.5625 2.8125 C-2.18478516 2.95945313 -2.18478516 2.95945313 -3.83984375 3.109375 C-6.625 3.0625 -6.625 3.0625 -8.625 1.0625 C-5.74084117 -0.37957941 -3.20778472 -0.03144887 0 0 Z " fill="#EE5E5C" transform="translate(310.625,152.9375)"/>
<path d="M0 0 C3.63 0.33 7.26 0.66 11 1 C11 1.66 11 2.32 11 3 C10.01 3.495 10.01 3.495 9 4 C10.65 4.33 12.3 4.66 14 5 C14 5.33 14 5.66 14 6 C7.375 6.25 7.375 6.25 4 4 C4 3.34 4 2.68 4 2 C2.68 1.34 1.36 0.68 0 0 Z " fill="#8E1A1C" transform="translate(270,351)"/>
<path d="M0 0 C0.99 0.33 1.98 0.66 3 1 C2.360625 1.598125 1.72125 2.19625 1.0625 2.8125 C-1.20310389 4.90810337 -1.20310389 4.90810337 -2 8 C-4.31 8.33 -6.62 8.66 -9 9 C-8.06725891 7.87105124 -7.12859878 6.74699124 -6.1875 5.625 C-5.66542969 4.99851562 -5.14335937 4.37203125 -4.60546875 3.7265625 C-3 2 -3 2 0 0 Z " fill="#951214" transform="translate(207,336)"/>
<path d="M0 0 C2.27141109 0.11402064 4.54214552 0.24158505 6.8125 0.375 C8.07707031 0.44460938 9.34164063 0.51421875 10.64453125 0.5859375 C14 1 14 1 17 3 C14.91731407 3.08126087 12.83371342 3.13930839 10.75 3.1875 C9.00976562 3.23970703 9.00976562 3.23970703 7.234375 3.29296875 C3.77731593 2.97982934 2.48434437 2.34290892 0 0 Z " fill="#EF8C86" transform="translate(298,309)"/>
<path d="M0 0 C0.64066406 0.13277344 1.28132813 0.26554687 1.94140625 0.40234375 C6.94983993 1.42493006 11.93111794 2.33884147 17 3 C17 3.33 17 3.66 17 4 C11.21408489 4.10477512 5.70690634 3.99250545 0 3 C0 2.01 0 1.02 0 0 Z " fill="#F1C2BE" transform="translate(281,304)"/>
<path d="M0 0 C0.33 0 0.66 0 1 0 C1 1.65 1 3.3 1 5 C-2.53186832 7.15059309 -5.66287993 7.3797728 -9.75 7.625 C-10.92046875 7.69976562 -12.0909375 7.77453125 -13.296875 7.8515625 C-14.18890625 7.90054688 -15.0809375 7.94953125 -16 8 C-16 7.34 -16 6.68 -16 6 C-15.08476562 5.86722656 -14.16953125 5.73445312 -13.2265625 5.59765625 C-12.03804687 5.42105469 -10.84953125 5.24445313 -9.625 5.0625 C-8.44164062 4.88847656 -7.25828125 4.71445313 -6.0390625 4.53515625 C-3.09297619 4.16537214 -3.09297619 4.16537214 -1 3 C-0.67 2.01 -0.34 1.02 0 0 Z " fill="#E6282A" transform="translate(224,159)"/>
<path d="M0 0 C0.7425 0.7115625 0.7425 0.7115625 1.5 1.4375 C-4.5018137 1.65574777 -9.69233704 0.9431904 -15.5 -0.5625 C-15.5 -0.8925 -15.5 -1.2225 -15.5 -1.5625 C-10.16634959 -3.06258918 -4.74636153 -2.96647596 0 0 Z " fill="#8B2324" transform="translate(146.5,357.5625)"/>
<path d="M0 0 C0.33 0 0.66 0 1 0 C1.34615998 5.65394631 0.43425238 9.03006806 -2 14 C-2.33 14 -2.66 14 -3 14 C-3.34615998 8.34605369 -2.43425238 4.96993194 0 0 Z " fill="#AA2C2E" transform="translate(387,308)"/>
<path d="M0 0 C-0.33 0.99 -0.66 1.98 -1 3 C-2.41543415 3.19658808 -3.83244031 3.38187546 -5.25 3.5625 C-6.03890625 3.66691406 -6.8278125 3.77132812 -7.640625 3.87890625 C-10.00532874 4.00027349 -11.7511037 3.69633257 -14 3 C-9.07015675 0.96006486 -5.42039575 -0.40652968 0 0 Z " fill="#EB292C" transform="translate(302,162)"/>
<path d="M0 0 C-0.99 0 -1.98 0 -3 0 C-3.309375 0.639375 -3.61875 1.27875 -3.9375 1.9375 C-5 4 -5 4 -6 5 C-7.66617115 5.04063832 -9.33388095 5.042721 -11 5 C-11.33 4.34 -11.66 3.68 -12 3 C-10.75823305 2.29773859 -9.50614401 1.61370891 -8.25 0.9375 C-7.20585937 0.36322266 -7.20585937 0.36322266 -6.140625 -0.22265625 C-3.63859372 -1.1312406 -2.4667645 -0.88336837 0 0 Z " fill="#7C1112" transform="translate(199,348)"/>
<path d="M0 0 C2.31 0.33 4.62 0.66 7 1 C7 1.66 7 2.32 7 3 C9.64 3.33 12.28 3.66 15 4 C13.359375 5.1484375 13.359375 5.1484375 11 6 C8.203125 5.1015625 8.203125 5.1015625 5.25 3.625 C4.26515625 3.14289063 3.2803125 2.66078125 2.265625 2.1640625 C1.51796875 1.77992188 0.7703125 1.39578125 0 1 C0 0.67 0 0.34 0 0 Z " fill="#F69090" transform="translate(341,234)"/>
<path d="M0 0 C1.1549921 0.73581742 2.29874185 1.48930039 3.4375 2.25 C4.07558594 2.66765625 4.71367187 3.0853125 5.37109375 3.515625 C7.29902057 5.27248877 7.61479436 6.46089803 8 9 C2.25 6.25 2.25 6.25 0 4 C0 2.68 0 1.36 0 0 Z " fill="#E16D6D" transform="translate(300,214)"/>
<path d="M0 0 C0.33 1.32 0.66 2.64 1 4 C-3.1205746 5.99785435 -6.45194365 6.17835515 -11 6 C-9.68 5.67 -8.36 5.34 -7 5 C-7 4.34 -7 3.68 -7 3 C-4.69 2.01 -2.38 1.02 0 0 Z " fill="#E34543" transform="translate(225,156)"/>
<path d="M0 0 C-3.06975587 2.04650391 -5.69084152 2.99704565 -9.1875 4.125 C-10.27417969 4.47820312 -11.36085938 4.83140625 -12.48046875 5.1953125 C-13.31191406 5.46085938 -14.14335937 5.72640625 -15 6 C-15 5.34 -15 4.68 -15 4 C-14.34 4 -13.68 4 -13 4 C-13 3.34 -13 2.68 -13 2 C-8.46298506 0.54815522 -4.81938524 -0.23509196 0 0 Z " fill="#F5ABA9" transform="translate(287,155)"/>
<path d="M0 0 C1.0528418 0.01353516 1.0528418 0.01353516 2.12695312 0.02734375 C3.85561525 0.05086296 5.58410145 0.08673287 7.3125 0.125 C7.3125 0.455 7.3125 0.785 7.3125 1.125 C6.39017578 1.21587891 6.39017578 1.21587891 5.44921875 1.30859375 C4.64097656 1.39238281 3.83273437 1.47617188 3 1.5625 C2.19949219 1.64371094 1.39898437 1.72492188 0.57421875 1.80859375 C-1.84837179 2.07765693 -1.84837179 2.07765693 -4.6875 3.125 C-6.69625442 2.84928861 -8.69928687 2.52264263 -10.6875 2.125 C-7.00662647 -0.32891569 -4.24394412 -0.10302759 0 0 Z " fill="#EB6363" transform="translate(294.6875,154.875)"/>
<path d="M0 0 C1.69752187 0.25245197 3.38471545 0.57645775 5.0625 0.9375 C5.98160156 1.13214844 6.90070313 1.32679688 7.84765625 1.52734375 C8.91306641 1.76130859 8.91306641 1.76130859 10 2 C10 2.66 10 3.32 10 4 C7.36 4 4.72 4 2 4 C2 3.34 2 2.68 2 2 C1.01 1.67 0.02 1.34 -1 1 C-0.67 0.67 -0.34 0.34 0 0 Z " fill="#780D0F" transform="translate(126,352)"/>
<path d="M0 0 C2 3 2 3 1.7578125 5.04296875 C1.171875 7.02864583 0.5859375 9.01432292 0 11 C-0.99 10.67 -1.98 10.34 -3 10 C-2.39009109 6.44219804 -1.4216319 3.3171411 0 0 Z " fill="#C47C78" transform="translate(109,336)"/>
<path d="M0 0 C0.99 0 1.98 0 3 0 C2.67 1.98 2.34 3.96 2 6 C1.34 6 0.68 6 0 6 C0 6.66 0 7.32 0 8 C-0.66 8 -1.32 8 -2 8 C-1.125 2.25 -1.125 2.25 0 0 Z " fill="#E58280" transform="translate(112,328)"/>
<path d="M0 0 C0.99 0.33 1.98 0.66 3 1 C2.9071875 2.11375 2.9071875 2.11375 2.8125 3.25 C3.03094296 6.45383006 3.90250005 7.64031256 6 10 C4.02 9.34 2.04 8.68 0 8 C0 5.33333333 0 2.66666667 0 0 Z " fill="#DF2A2E" transform="translate(298,212)"/>
<path d="M0 0 C2.12472576 -0.05386629 4.24983652 -0.09273071 6.375 -0.125 C7.55835938 -0.14820313 8.74171875 -0.17140625 9.9609375 -0.1953125 C13 0 13 0 15 2 C9.3067505 3.18609365 5.57432514 2.66251802 0 1 C0 0.67 0 0.34 0 0 Z " fill="#B7272B" transform="translate(329,200)"/>
<path d="M0 0 C-0.33 1.32 -0.66 2.64 -1 4 C-1.66 4 -2.32 4 -3 4 C-3.66 5.32 -4.32 6.64 -5 8 C-5.66 8 -6.32 8 -7 8 C-6.44414399 4.1090079 -4.34122117 0 0 0 Z " fill="#842223" transform="translate(212,336)"/>
<path d="M0 0 C4.29 1.65 8.58 3.3 13 5 C13 5.33 13 5.66 13 6 C11.56208484 5.85831863 10.1246763 5.71148957 8.6875 5.5625 C7.88699219 5.48128906 7.08648437 5.40007812 6.26171875 5.31640625 C4 5 4 5 1 4 C0.67 2.68 0.34 1.36 0 0 Z " fill="#DA272C" transform="translate(260,298)"/>
<path d="M0 0 C3.69900008 0.88776002 7.34550461 1.94581864 11 3 C10.67 4.98 10.34 6.96 10 9 C9.67 9 9.34 9 9 9 C9 7.35 9 5.7 9 4 C8.071875 4.0825 7.14375 4.165 6.1875 4.25 C3 4 3 4 1.125 2 C0.75375 1.34 0.3825 0.68 0 0 Z " fill="#D94A4C" transform="translate(376,165)"/>
<path d="M0 0 C0.99 0.33 1.98 0.66 3 1 C2.34 2.32 1.68 3.64 1 5 C0.01 5 -0.98 5 -2 5 C-1.67 6.32 -1.34 7.64 -1 9 C-1.66 9 -2.32 9 -3 9 C-3.36923077 3.46153846 -3.36923077 3.46153846 -1.5 1.125 C-1.005 0.75375 -0.51 0.3825 0 0 Z " fill="#C35959" transform="translate(232,329)"/>
<path d="M0 0 C5.53846154 0.61538462 5.53846154 0.61538462 7.875 2.5625 C8.431875 3.2740625 8.431875 3.2740625 9 4 C6.75 4.6875 6.75 4.6875 4 5 C1.6875 3.6875 1.6875 3.6875 0 2 C0 1.34 0 0.68 0 0 Z " fill="#F0BCBA" transform="translate(123,300)"/>
<path d="M0 0 C2.99324263 1.0975223 3.84610901 1.67682892 5.25 4.625 C5.4975 5.40875 5.745 6.1925 6 7 C4.1875 6.8125 4.1875 6.8125 2 6 C0.25 3.4375 0.25 3.4375 -1 1 C-0.67 0.67 -0.34 0.34 0 0 Z " fill="#E16B6C" transform="translate(379,258)"/>
<path d="M0 0 C2.54080889 2.9826887 3.2802322 5.19551307 4 9 C4.66 9.33 5.32 9.66 6 10 C5.01 10 4.02 10 3 10 C-0.22265625 4.82421875 -0.22265625 4.82421875 -1 3 C-0.67 2.01 -0.34 1.02 0 0 Z " fill="#C24E50" transform="translate(242,237)"/>
<path d="M0 0 C3 1 6 2 9 3 C8.67 3.99 8.34 4.98 8 6 C7.67 5.34 7.34 4.68 7 4 C5.02 4 3.04 4 1 4 C0.67 2.68 0.34 1.36 0 0 Z " fill="#80191C" transform="translate(230,335)"/>
<path d="M0 0 C3.35595828 0.59927826 5.37801226 1.84622436 8 4 C5.03 4 2.06 4 -1 4 C-0.67 2.68 -0.34 1.36 0 0 Z " fill="#DE2A2B" transform="translate(250,293)"/>
<path d="M0 0 C2.64 0.33 5.28 0.66 8 1 C8.625 2.875 8.625 2.875 9 5 C8.34 5.66 7.68 6.32 7 7 C7 6.01 7 5.02 7 4 C4.69 3.01 2.38 2.02 0 1 C0 0.67 0 0.34 0 0 Z " fill="#EFA19F" transform="translate(379,165)"/>
<path d="M0 0 C1.28813232 3.86439695 0.77385151 5.375173 -1 9 C-4.125 10.375 -4.125 10.375 -7 11 C-6.67 10.01 -6.34 9.02 -6 8 C-5.01 7.67 -4.02 7.34 -3 7 C-1.28432339 3.49705129 -1.28432339 3.49705129 0 0 Z " fill="#C01618" transform="translate(384,312)"/>
<path d="M0 0 C0.99 0.33 1.98 0.66 3 1 C1.1875 3 1.1875 3 -1 5 C-1.99 5 -2.98 5 -4 5 C-4 5.66 -4 6.32 -4 7 C-4.66 6.67 -5.32 6.34 -6 6 C-4 4 -2 2 0 0 Z " fill="#EF9694" transform="translate(252,173)"/>
<path d="M0 0 C0.33 0.99 0.66 1.98 1 3 C-0.875 5.5625 -0.875 5.5625 -3 8 C-3.33 8.66 -3.66 9.32 -4 10 C-4.66 10 -5.32 10 -6 10 C-4.6302836 6.00499382 -2.74277578 3.19990508 0 0 Z " fill="#DC2428" transform="translate(252,176)"/>
<path d="M0 0 C2.64 0 5.28 0 8 0 C8.33 1.32 8.66 2.64 9 4 C6.03 3.01 3.06 2.02 0 1 C0 0.67 0 0.34 0 0 Z " fill="#8F3637" transform="translate(240,343)"/>
<path d="M0 0 C7.50769231 0.61538462 7.50769231 0.61538462 10 2.5625 C10.33 3.036875 10.66 3.51125 11 4 C7.0507432 3.44894091 3.65079826 2.61064629 0 1 C0 0.67 0 0.34 0 0 Z " fill="#A63335" transform="translate(285,273)"/>
<path d="M0 0 C3.3 0.33 6.6 0.66 10 1 C10.33 1.99 10.66 2.98 11 4 C7.37 3.01 3.74 2.02 0 1 C0 0.67 0 0.34 0 0 Z " fill="#F59C9B" transform="translate(358,157)"/>
<path d="M0 0 C0.66 0 1.32 0 2 0 C2.36923077 4.55384615 2.36923077 4.55384615 0.5 6.8125 C0.005 7.204375 -0.49 7.59625 -1 8 C-1.625 5.6875 -1.625 5.6875 -2 3 C-1.34 2.01 -0.68 1.02 0 0 Z " fill="#A11F1E" transform="translate(213,330)"/>
<path d="M0 0 C0.33 0 0.66 0 1 0 C1 1.98 1 3.96 1 6 C-1.64 6.33 -4.28 6.66 -7 7 C-5 5 -5 5 -2 4 C-0.79117904 1.99983534 -0.79117904 1.99983534 0 0 Z " fill="#F4B0B1" transform="translate(164,302)"/>
<path d="M0 0 C4.75 1.875 4.75 1.875 7 3 C6.67 3.99 6.34 4.98 6 6 C2.535 4.02 2.535 4.02 -1 2 C-0.67 1.34 -0.34 0.68 0 0 Z " fill="#F08684" transform="translate(255,293)"/>
<path d="M0 0 C1.32 0 2.64 0 4 0 C4.33 1.98 4.66 3.96 5 6 C3.02 4.68 1.04 3.36 -1 2 C-0.67 1.34 -0.34 0.68 0 0 Z " fill="#EF7C7A" transform="translate(369,248)"/>
<path d="M0 0 C2.5 1.3125 2.5 1.3125 5 3 C5 3.99 5 4.98 5 6 C3.68 5.67 2.36 5.34 1 5 C0.67 3.35 0.34 1.7 0 0 Z " fill="#E1272D" transform="translate(361,244)"/>
<path d="M0 0 C0.66 0 1.32 0 2 0 C1.01 2.97 0.02 5.94 -1 9 C-1.33 9 -1.66 9 -2 9 C-2.125 5.625 -2.125 5.625 -2 2 C-1.34 1.34 -0.68 0.68 0 0 Z " fill="#BF1E21" transform="translate(300,201)"/>
<path d="M0 0 C0.99 0.66 1.98 1.32 3 2 C0.09399739 3.25664978 -1.79604584 4 -5 4 C-5 3.34 -5 2.68 -5 2 C-2.6875 0.875 -2.6875 0.875 0 0 Z " fill="#710A09" transform="translate(184,352)"/>
<path d="M0 0 C0.8971875 0.5259375 0.8971875 0.5259375 1.8125 1.0625 C-2.61826923 3.15480769 -2.61826923 3.15480769 -5.5 2.6875 C-6.056875 2.48125 -6.61375 2.275 -7.1875 2.0625 C-6.5275 2.0625 -5.8675 2.0625 -5.1875 2.0625 C-5.1875 1.4025 -5.1875 0.7425 -5.1875 0.0625 C-2.1875 -0.9375 -2.1875 -0.9375 0 0 Z " fill="#8E1E20" transform="translate(347.1875,351.9375)"/>
<path d="M0 0 C2.9375 1.1875 2.9375 1.1875 3.9375 3.1875 C-2.21484375 2.6015625 -2.21484375 2.6015625 -4.0625 2.1875 C-4.3925 1.5275 -4.7225 0.8675 -5.0625 0.1875 C-3.0625 -0.8125 -3.0625 -0.8125 0 0 Z " fill="#F3AEAA" transform="translate(359.0625,238.8125)"/>
<path d="M0 0 C0.66 0.33 1.32 0.66 2 1 C1.01 4.3 0.02 7.6 -1 11 C-1.33 11 -1.66 11 -2 11 C-2 8.36 -2 5.72 -2 3 C-1.34 3 -0.68 3 0 3 C0 2.01 0 1.02 0 0 Z " fill="#E64142" transform="translate(241,192)"/>
<path d="M0 0 C2.76276177 0.52268466 5.3260876 1.10869587 8 2 C7.67 2.66 7.34 3.32 7 4 C4.69 3.34 2.38 2.68 0 2 C0 1.34 0 0.68 0 0 Z " fill="#F2C7C1" transform="translate(377,162)"/>
<path d="" fill="#FFFFFF" transform="translate(0,0)"/>
<path d="" fill="#FFFFFF" transform="translate(0,0)"/>
<path d="" fill="#FFFFFF" transform="translate(0,0)"/>
<path d="" fill="#FFFFFF" transform="translate(0,0)"/>
<path d="" fill="#FFFFFF" transform="translate(0,0)"/>
<path d="" fill="#FFFFFF" transform="translate(0,0)"/>
<path d="" fill="#FFFFFF" transform="translate(0,0)"/>
<path d="" fill="#FFFFFF" transform="translate(0,0)"/>
<path d="" fill="#FFFFFF" transform="translate(0,0)"/>
<path d="" fill="#FFFFFF" transform="translate(0,0)"/>
<path d="" fill="#FFFFFF" transform="translate(0,0)"/>
<path d="" fill="#FFFFFF" transform="translate(0,0)"/>
<path d="" fill="#FFFFFF" transform="translate(0,0)"/>
<path d="" fill="#FFFFFF" transform="translate(0,0)"/>
<path d="" fill="#FFFFFF" transform="translate(0,0)"/>
<path d="" fill="#FFFFFF" transform="translate(0,0)"/>
<path d="" fill="#FFFFFF" transform="translate(0,0)"/>
<path d="" fill="#FFFFFF" transform="translate(0,0)"/>
<path d="" fill="#FFFFFF" transform="translate(0,0)"/>
<path d="" fill="#FF0000" transform="translate(0,0)"/>
<path d="" fill="#FF0000" transform="translate(0,0)"/>
<path d="" fill="#FFFFFF" transform="translate(0,0)"/>
<path d="" fill="#FFFFFF" transform="translate(0,0)"/>
<path d="" fill="#FFFFFF" transform="translate(0,0)"/>
<path d="" fill="#FFFFFF" transform="translate(0,0)"/>
<path d="" fill="#FFFFFF" transform="translate(0,0)"/>
<path d="" fill="#FFFFFF" transform="translate(0,0)"/>
<path d="" fill="#FFFFFF" transform="translate(0,0)"/>
<path d="" fill="#FFFFFF" transform="translate(0,0)"/>
<path d="" fill="#FFFFFF" transform="translate(0,0)"/>
<path d="" fill="#FFFFFF" transform="translate(0,0)"/>
<path d="" fill="#FFFFFF" transform="translate(0,0)"/>
<path d="" fill="#FFFFFF" transform="translate(0,0)"/>
<path d="" fill="#FFFFFF" transform="translate(0,0)"/>
<path d="" fill="#FFFFFF" transform="translate(0,0)"/>
<path d="" fill="#FFFFFF" transform="translate(0,0)"/>
<path d="" fill="#FFFFFF" transform="translate(0,0)"/>
<path d="" fill="#FFFFFF" transform="translate(0,0)"/>
<path d="" fill="#FFFFFF" transform="translate(0,0)"/>
<path d="" fill="#FFFFFF" transform="translate(0,0)"/>
<path d="" fill="#FFFFFF" transform="translate(0,0)"/>
<path d="" fill="#FFFFFF" transform="translate(0,0)"/>
<path d="" fill="#FFFFFF" transform="translate(0,0)"/>
<path d="" fill="#FFFFFF" transform="translate(0,0)"/>
<path d="" fill="#FFFFFF" transform="translate(0,0)"/>
<path d="" fill="#FFFFFF" transform="translate(0,0)"/>
<path d="" fill="#FFFFFF" transform="translate(0,0)"/>
<path d="" fill="#FFFFFF" transform="translate(0,0)"/>
<path d="" fill="#FFFFFF" transform="translate(0,0)"/>
<path d="" fill="#FFFFFF" transform="translate(0,0)"/>
<path d="" fill="#FFFFFF" transform="translate(0,0)"/>
<path d="" fill="#FFFFFF" transform="translate(0,0)"/>
<path d="" fill="#FFFFFF" transform="translate(0,0)"/>
<path d="" fill="#FFFFFF" transform="translate(0,0)"/>
<path d="" fill="#FFFFFF" transform="translate(0,0)"/>
<path d="" fill="#FFFFFF" transform="translate(0,0)"/>
<path d="" fill="#FFFFFF" transform="translate(0,0)"/>
<path d="" fill="#FFFFFF" transform="translate(0,0)"/>
<path d="" fill="#FFFFFF" transform="translate(0,0)"/>
<path d="" fill="#FFFFFF" transform="translate(0,0)"/>
<path d="" fill="#FFFFFF" transform="translate(0,0)"/>
</svg>
